<svg width="150" height="150" viewBox="0 0 150 150" fill="none" xmlns="http://www.w3.org/2000/svg">
<path fill-rule="evenodd" clip-rule="evenodd" d="M26.25 74.9999C26.25 60.2399 32.9876 48.0669 40.4053 40.6589C71.312 9.7935 123.75 31.8854 123.75 74.9999C123.75 101.849 101.856 123.75 75.0001 123.75C48.143 123.75 26.25 101.859 26.25 74.9999ZM74.0066 10H76.0733C78.2502 10.1152 80.4157 10.5945 82.4421 11.445C83.41 11.8513 84.0693 12.3133 84.8923 12.8034C86.2963 13.6397 86.4953 14.3165 87.1877 14.3165C88.0519 14.3165 88.6583 13.5548 94.2971 13.5548C100.852 13.5548 106.325 18.131 109.277 23.711C117.838 23.711 126.289 32.1534 126.289 40.7227C127.803 41.5234 129.052 42.1688 130.292 43.3218C131.471 44.4191 132.301 45.347 133.249 46.7124C138.68 54.5377 135.684 61.1528 135.684 63.0664C135.684 63.0781 139.372 67.4297 140 73.5908V77.1116C139.743 79.566 138.917 82.1996 137.195 84.8903C135.108 88.1509 135.556 85.9161 136.2 89.4639C136.523 91.2437 136.445 92.1983 136.445 94.0429C136.445 100.63 131.989 106.261 126.289 109.277C126.289 117.838 117.847 126.289 109.277 126.289C107.605 129.449 106.339 131.13 103.288 133.248C99.5337 135.854 93.5607 137.264 89.0273 136.129C85.6893 135.294 87.7179 135.636 84.5655 137.378C83.616 137.902 83.0966 138.244 82.0413 138.662C80.0993 139.431 78.145 139.872 76.2049 140H73.8268C70.8244 139.801 67.8841 138.851 65.1083 137.197C61.8596 135.261 64.759 135.434 60.5363 136.2C55.3459 137.142 50.7037 135.88 46.5614 133.146C45.2712 132.294 44.2453 131.336 43.1997 130.16C42.0974 128.92 41.5046 127.766 40.7228 126.289C32.1624 126.289 23.711 117.847 23.711 109.277C17.9573 106.233 13.5548 100.621 13.5548 93.7891C13.5548 86.19 15.3351 88.2734 13.2247 85.4864C11.4461 83.137 10 79.2334 10 75.7619C10 66.0785 14.3163 64.0001 14.3163 62.8126C14.3163 61.8678 13.5545 61.4222 13.5545 55.9571C13.5545 51.0461 16.5853 46.0929 19.8401 43.1996C21.0802 42.0972 22.2335 41.5044 23.7108 40.7227C23.7108 32.162 32.1565 23.711 40.7225 23.711C42.3946 20.5508 43.6606 18.8699 46.7122 16.7517C50.6851 13.9942 53.5669 13.5548 58.496 13.5548C59.9137 13.5548 62.5156 14.3488 63.0101 14.2455C63.5974 14.1228 63.8952 13.6021 64.4813 13.1927C67.2568 11.2532 70.5965 10.1803 74.0066 10.0003V10Z" fill="#6CC070"/>
<path fill-rule="evenodd" clip-rule="evenodd" d="M69.7309 102.992L40.9133 74.3011L57.6724 57.6721L69.6064 69.4753L92.2033 47.0077L109.086 63.7651L69.7309 102.992V102.992ZM74.2383 33.867C73.9199 33.9435 72.173 33.8445 71.691 33.8587C64.3492 34.0738 55.2122 38.0836 49.4601 42.6044C48.8659 43.0714 48.6444 43.3383 48.0853 43.7688C43.9399 46.9618 39.3022 53.5618 37.0936 58.6754C35.4605 62.4565 33.1541 70.7352 33.7876 75.8207C33.9849 77.4031 33.9626 79.1328 34.1193 80.5872C34.5148 84.2606 36.0961 89.3936 37.6747 92.5201C42.3369 101.754 48.7449 108.616 58.6757 112.906C65.9211 116.036 72.7335 116.726 80.5879 115.88C94.4088 114.392 107.356 104.173 112.907 91.324C116.348 83.3578 117.198 73.7988 115.07 65.1449C114.439 62.5781 113.431 59.6679 112.326 57.4793C111.142 55.1345 110.019 52.9468 108.48 50.9143C108.086 50.3939 107.83 50.0123 107.396 49.4599C100.539 40.7356 90.2643 35.0966 79.0263 33.9035C78.1967 33.8155 77.352 33.9235 76.5349 33.8509C75.636 33.771 75.4765 33.5575 74.7963 33.6638C73.7655 33.825 74.6499 33.7677 74.2386 33.867H74.2383Z" fill="#6CC070"/>
<path fill-rule="evenodd" clip-rule="evenodd" d="M69.6682 79.8238C67.678 78.491 59.2977 68.8154 57.7344 68.398L51.7002 74.2975L69.605 92.3281L98.4228 63.637L92.3254 57.6743C91.2133 58.0127 87.5611 62.0579 86.4896 63.1294C84.2804 65.3386 70.8221 79.0512 69.6682 79.8238Z" fill="#6CC070"/>
</svg>
