<svg width="200" height="201" viewBox="0 0 200 201" fill="none" xmlns="http://www.w3.org/2000/svg">
<path d="M137.138 167.234C136.565 166.744 135.287 165.189 136.274 163.378C136.634 162.716 137.4 162.388 138.092 162.097C138.806 161.856 139.48 161.507 140.09 161.063C141.17 160.142 141.472 158.612 142.188 157.384C143.016 155.973 144.554 154.915 146.181 154.99C148.046 155.073 149.597 156.596 150.303 158.331C151.008 160.066 151.023 161.992 151.048 163.864C151.048 164.901 151.008 166.071 150.249 166.769C149.547 167.414 148.492 167.421 147.542 167.392L137.361 167.079" fill="#F5F5F5"/>
<path d="M156.61 139.236H129.833L134.657 167.997C134.757 168.596 135.025 169.154 135.429 169.608C135.834 170.061 136.359 170.39 136.943 170.556L137.037 170.582C137.116 170.603 137.195 170.628 137.274 170.643C137.455 170.679 137.638 170.701 137.821 170.708V170.733H137.951H149.885C150.105 170.732 150.325 170.709 150.54 170.664C151.236 170.554 151.877 170.221 152.366 169.714C152.855 169.208 153.166 168.555 153.251 167.856L155.58 148.02L155.685 147.232L156.592 139.38L156.61 139.236ZM151.57 157.596H148.819L149.1 149.248H152.283L151.57 157.596ZM152.549 149.248H155.181L154.201 157.596H151.84L152.549 149.248ZM144.697 166.848L144.532 159.598H148.492L148.24 166.834L144.697 166.848ZM140.421 159.598H144.265L144.431 166.848H140.986L140.421 159.598ZM140.719 166.848H137.479C137.173 164.89 136.759 162.348 136.342 159.598H140.14L140.719 166.848ZM140.266 157.596L139.6 149.234H144.01L144.201 157.582L140.266 157.596ZM144.485 157.596L144.28 149.234H148.819L148.542 157.582L144.485 157.596ZM144.247 147.246L144.067 139.517H149.154L148.899 147.246H144.247ZM143.981 147.246H139.449L138.851 139.517H143.794L143.981 147.246ZM139.193 147.246H134.401L133.926 144.262C133.426 141.134 133.239 139.96 133.134 139.517H138.585L139.193 147.246ZM139.351 149.248L139.999 157.596H136.039C135.906 156.75 135.773 155.894 135.636 155.037C135.327 153.064 135.017 151.095 134.725 149.248H139.351ZM135.773 157.596H133.192L131.791 149.248H134.459C134.855 151.815 135.309 154.684 135.762 157.582L135.773 157.596ZM136.09 159.598C136.482 162.118 136.871 164.58 137.224 166.848H134.743L133.527 159.598H136.09ZM148.513 166.848L148.755 159.598H151.397L150.76 166.834L148.513 166.848ZM149.165 147.246L149.421 139.517H153.114L152.452 147.246H149.165ZM132.893 139.517C133.001 140.075 133.487 143.117 134.142 147.246H131.457L130.157 139.517H132.893ZM153.114 166.848H151.044L151.663 159.598H153.964L153.114 166.848ZM155.415 147.246H152.718L153.381 139.517H156.322L155.415 147.246Z" fill="#E0E0E0"/>
<path d="M51.1263 78.3095C51.1263 78.3095 51.0651 78.1979 50.9607 77.9891L50.4963 77.0603L48.7467 73.5251C47.2419 70.4759 45.0927 66.1127 42.4827 60.8171L42.5871 60.8531L18.6111 72.5999L18.6543 72.4739L27.2187 90.0023L27.1035 89.9627L44.4123 81.5423L49.3479 79.1519L50.6799 78.5399L51.0183 78.3815L51.1407 78.3275L51.0327 78.3851L50.6799 78.5399L49.3875 79.1843L44.4915 81.6035L27.1791 90.1175L27.1035 90.1571L27.0639 90.0779L18.4851 72.5603L18.4419 72.4739L18.5283 72.4343L42.5187 60.7199L42.5871 60.6875L42.6195 60.7559L48.8331 73.5395L50.5395 77.0747L50.9823 77.9999L51.1263 78.3095Z" fill="#E0E0E0"/>
<path d="M42.551 60.7852C42.5486 60.8173 42.5413 60.8488 42.5294 60.8788C42.5078 60.9508 42.479 61.0408 42.443 61.1488C42.3602 61.4008 42.245 61.7464 42.083 62.182C41.7698 63.0928 41.3234 64.3816 40.7726 65.9692L36.4022 78.4432L36.2798 78.5008H36.2582H36.2294L36.1718 78.4828L36.0566 78.4432L35.8262 78.3676L35.3726 78.2164L34.4798 77.8996L32.7194 77.3128L29.3894 76.2004L23.7554 74.3068L19.961 73.0144L18.935 72.6544L18.6686 72.5572C18.6367 72.5489 18.6063 72.5355 18.5786 72.5176C18.6107 72.52 18.6423 72.5272 18.6722 72.5392L18.9458 72.6184L19.9862 72.946L23.7986 74.1808L29.4398 76.0204L32.7734 77.122L34.5374 77.7088L35.4374 78.0076L35.8946 78.1588L36.1214 78.2344L36.2366 78.2704L36.2942 78.292H36.323H36.3446C36.2942 78.3172 36.467 78.238 36.233 78.3532C37.9646 73.4932 39.5306 69.0976 40.6682 65.8972L42.0398 62.1568C42.1982 61.7248 42.3278 61.3828 42.3998 61.138L42.5042 60.8716L42.551 60.7852Z" fill="#E0E0E0"/>
<path d="M30.3868 76.4454C30.4372 76.4454 29.7532 79.5306 28.8568 83.3106C27.9604 87.0906 27.19 90.1506 27.1396 90.1326C27.0892 90.1146 27.7768 87.0474 28.6732 83.2674C29.5696 79.4874 30.3364 76.431 30.3868 76.4454Z" fill="#E0E0E0"/>
<path d="M51.3782 78.4397C51.3566 78.4829 48.4766 77.0718 44.945 75.2862C41.4134 73.5006 38.5694 72.0138 38.5946 71.967C38.6198 71.9202 41.4998 73.3313 45.0314 75.1205C48.563 76.9097 51.3998 78.393 51.3782 78.4397Z" fill="#E0E0E0"/>
<path d="M169.743 80.3685C169.743 80.3685 169.797 80.2821 169.905 80.1273L170.387 79.4469L172.223 76.8765L178.872 67.6173V67.7253L160.368 54.3585L160.501 54.3369L151.303 67.0377L151.285 66.9189L164.577 76.5885L168.371 79.3605L169.383 80.1021L169.642 80.2965C169.699 80.3433 169.732 80.3649 169.732 80.3685L169.645 80.3109L169.386 80.1309L168.378 79.4109L164.573 76.6857L151.195 67.0557L151.12 67.0197L151.17 66.9477L160.354 54.2397L160.411 54.1641L160.487 54.2181L178.973 67.6137L179.034 67.6569L178.987 67.7181L172.255 76.9557C171.453 78.0357 170.815 78.9033 170.394 79.4937C170.185 79.7781 170.034 79.9977 169.908 80.1489C169.782 80.3001 169.743 80.3685 169.743 80.3685Z" fill="#E0E0E0"/>
<path d="M178.934 67.6647C178.83 67.6892 178.726 67.7072 178.62 67.7187L177.724 67.8447L174.423 68.2659L163.526 69.5943C163.32 69.4431 163.468 69.5475 163.421 69.5115V69.4755V69.4251L163.403 69.3279L163.364 69.1299L163.284 68.7411C163.23 68.4819 163.18 68.2227 163.126 67.9671C163.025 67.4559 162.921 66.9519 162.824 66.4551C162.626 65.4651 162.431 64.5075 162.251 63.5967C161.891 61.7967 161.564 60.1407 161.29 58.7583C161.016 57.3759 160.811 56.2779 160.66 55.4895L160.498 54.6003C160.477 54.4969 160.461 54.3923 160.451 54.2871C160.488 54.3864 160.516 54.4889 160.534 54.5931C160.581 54.8091 160.649 55.1043 160.732 55.4751L161.42 58.7151C161.704 60.0975 162.042 61.7319 162.42 63.5499C162.604 64.4607 162.802 65.4147 163.004 66.4047C163.104 66.9015 163.205 67.4055 163.31 67.9167C163.364 68.1723 163.414 68.4279 163.468 68.6871L163.547 69.0795L163.587 69.2739L163.605 69.3747V69.4215V69.4647C163.562 69.4323 163.709 69.5439 163.504 69.3963L174.408 68.1255L177.717 67.7655L178.617 67.6755C178.722 67.663 178.828 67.6594 178.934 67.6647Z" fill="#E0E0E0"/>
<path d="M162.485 64.4173C162.485 64.4677 159.965 65.0905 156.855 65.8105C153.744 66.5305 151.192 67.0705 151.178 67.0201C151.163 66.9697 153.698 66.3469 156.812 65.6269C159.926 64.9069 162.474 64.3669 162.485 64.4173Z" fill="#E0E0E0"/>
<path d="M169.753 80.6027C169.703 80.6027 169.523 77.9712 169.357 74.7204C169.192 71.4696 169.098 68.8308 169.152 68.8272C169.206 68.8236 169.379 71.4588 169.545 74.7096C169.71 77.9604 169.804 80.5991 169.753 80.6027Z" fill="#E0E0E0"/>
<path d="M133.451 146.306L133.732 146.414L134.531 146.746L137.566 148.013L148.481 152.603L148.384 152.642L157.636 130.801L157.686 130.927L142.692 124.548L142.804 124.501L136.086 140.208C135.262 142.127 134.61 143.65 134.157 144.697C133.934 145.212 133.761 145.612 133.638 145.889L133.505 146.198L133.451 146.306C133.451 146.306 133.451 146.27 133.491 146.202C133.53 146.134 133.563 146.029 133.613 145.9L134.106 144.715L136 140.226C137.631 136.363 139.938 130.891 142.66 124.433L142.692 124.354L142.772 124.39L157.762 130.74L157.848 130.776L157.809 130.862C154.32 139.067 151.095 146.641 148.521 152.693L148.492 152.761L148.424 152.732L137.494 148.052L134.492 146.756L133.714 146.418L133.451 146.306Z" fill="#E0E0E0"/>
<path d="M148.452 152.675C148.437 152.652 148.425 152.626 148.416 152.6C148.391 152.538 148.362 152.463 148.323 152.373C148.244 152.157 148.132 151.862 147.992 151.491C147.704 150.71 147.297 149.604 146.8 148.251L142.934 137.516C143.034 137.282 142.966 137.451 142.988 137.397H143.013L143.06 137.375L143.153 137.332L143.344 137.246L143.722 137.076L144.467 136.738L145.929 136.079L148.69 134.837L153.37 132.742L156.531 131.345L157.395 130.985L157.622 130.895C157.676 130.874 157.701 130.866 157.701 130.87L157.629 130.913L157.413 131.021L156.563 131.424L153.424 132.864L148.744 134.996L145.986 136.248L144.546 136.907L143.798 137.246L143.438 137.418L143.25 137.501L143.153 137.544L143.106 137.566H143.085C143.103 137.516 143.031 137.685 143.128 137.454C144.615 141.645 145.961 145.439 146.94 148.204C147.416 149.572 147.804 150.684 148.078 151.469C148.204 151.847 148.305 152.142 148.377 152.362C148.406 152.456 148.431 152.531 148.452 152.596C148.456 152.622 148.456 152.649 148.452 152.675Z" fill="#E0E0E0"/>
<path d="M147.934 135.262C147.887 135.284 146.67 132.872 145.22 129.862C143.769 126.853 142.631 124.419 142.678 124.394C142.725 124.369 143.938 126.784 145.389 129.794C146.84 132.803 147.977 135.241 147.934 135.262Z" fill="#E0E0E0"/>
<path d="M133.217 146.371C133.217 146.321 135.831 145.533 139.085 144.611C142.339 143.689 145 142.98 145 143.034C145 143.088 142.386 143.873 139.132 144.795C135.877 145.716 133.231 146.422 133.217 146.371Z" fill="#E0E0E0"/>
<path d="M156.718 29.8213H49.0815V120.307H156.718V29.8213Z" fill="#EBEBEB"/>
<path d="M49.2903 36.0604C49.2903 36.01 73.2951 35.9668 102.898 35.9668C132.501 35.9668 156.52 36.0208 156.52 36.0604C156.52 36.1 132.522 36.154 102.909 36.154C73.2951 36.154 49.2903 36.1216 49.2903 36.0604Z" fill="#E0E0E0"/>
<path d="M52.5663 33.9827C53.2025 33.9827 53.7183 33.4669 53.7183 32.8307C53.7183 32.1945 53.2025 31.6787 52.5663 31.6787C51.9301 31.6787 51.4143 32.1945 51.4143 32.8307C51.4143 33.4669 51.9301 33.9827 52.5663 33.9827Z" fill="#E0E0E0"/>
<path d="M55.7667 33.9827C56.403 33.9827 56.9187 33.4669 56.9187 32.8307C56.9187 32.1945 56.403 31.6787 55.7667 31.6787C55.1305 31.6787 54.6147 32.1945 54.6147 32.8307C54.6147 33.4669 55.1305 33.9827 55.7667 33.9827Z" fill="#E0E0E0"/>
<path d="M59.32 33.9827C59.9562 33.9827 60.472 33.4669 60.472 32.8307C60.472 32.1945 59.9562 31.6787 59.32 31.6787C58.6837 31.6787 58.168 32.1945 58.168 32.8307C58.168 33.4669 58.6837 33.9827 59.32 33.9827Z" fill="#E0E0E0"/>
<path d="M175.834 170.909C175.834 170.963 140.701 171.003 97.3755 171.003C54.0495 171.003 18.8955 170.963 18.8955 170.909C18.8955 170.855 54.0207 170.815 97.3755 170.815C140.73 170.815 175.834 170.859 175.834 170.909Z" fill="#263238"/>
<path d="M152.56 129.916C152.56 129.257 152.528 93.0051 152.481 37.0719L152.56 37.1403H42.1264L42.22 37.0467C42.22 70.6923 42.22 102.426 42.22 129.891L42.1336 129.808L152.578 129.891L42.1336 129.974H42.04V129.891C42.04 102.426 42.04 70.6923 42.04 37.0467V36.9531H42.1444H152.578H152.657V37.0323C152.607 93.0051 152.56 129.257 152.56 129.916Z" fill="#FAFAFA"/>
<path d="M152.575 37.0723H42.1301V129.916H152.575V37.0723Z" fill="#FAFAFA"/>
<path d="M82.0035 43.4834H42.3459V52.5734H82.0035V43.4834Z" fill="#EBEBEB"/>
<path d="M52.3467 50.8207C52.3467 50.8207 52.3467 50.7019 52.3467 50.4859C52.3467 50.2699 52.3467 49.9495 52.3467 49.5715C52.3467 48.7651 52.3251 47.6491 52.3071 46.3027L52.3827 46.3783H45.8055L45.8991 46.2847V48.6283C45.8991 49.3843 45.8991 50.1079 45.8991 50.7883L45.8127 50.7019L50.5323 50.7451L51.8931 50.7703H52.2531H52.3863C52.2321 50.7874 52.077 50.7946 51.9219 50.7919L50.5791 50.8135L45.8055 50.8567H45.7227V50.8207C45.7227 50.1331 45.7227 49.4095 45.7227 48.6607V47.5015C45.7227 47.3071 45.7227 47.1091 45.7227 46.9111V46.2955C45.6399 46.3783 45.8379 46.1803 45.8199 46.2019H52.3971H52.4727V46.2775C52.4727 47.6455 52.4439 48.7759 52.4331 49.5931C52.4331 49.9531 52.4331 50.2627 52.4331 50.4931C52.4149 50.6048 52.386 50.7145 52.3467 50.8207Z" fill="#263238"/>
<path d="M52.3469 46.2878C52.3469 46.2878 52.2713 46.3922 52.1129 46.5542C51.9545 46.7162 51.7205 46.943 51.4289 47.2238C50.8457 47.7854 50.0285 48.5522 49.1213 49.3838C48.8657 49.3838 49.0493 49.3838 48.9917 49.3838H48.9701L48.9269 49.3442L48.8441 49.265L48.6749 49.1102L48.3509 48.8078L47.7353 48.2354L46.6877 47.2202C46.3961 46.9394 46.1621 46.7126 46.0001 46.5506C45.9106 46.4726 45.8319 46.383 45.7661 46.2842C45.7661 46.2842 45.8777 46.349 46.0505 46.4966C46.2233 46.6442 46.4717 46.8566 46.7705 47.123L47.8289 48.0734L48.4481 48.6386L48.7757 48.9374L48.9449 49.0922L49.0277 49.1714L49.0709 49.2074L49.0925 49.229H48.9773C49.8845 48.3938 50.7125 47.6414 51.3209 47.105C51.6233 46.8386 51.8717 46.6226 52.0409 46.4786C52.1332 46.4006 52.2363 46.3363 52.3469 46.2878Z" fill="#263238"/>
<path d="M47.9584 48.3008C47.6656 48.7783 47.3203 49.2214 46.9288 49.622C46.5853 50.0645 46.1928 50.4667 45.7588 50.8208C46.0522 50.3449 46.3975 49.903 46.7884 49.5032C47.1324 49.0601 47.5249 48.6568 47.9584 48.3008Z" fill="#263238"/>
<path d="M52.39 50.8596C51.9655 50.4815 51.5839 50.0577 51.2524 49.596C50.8718 49.1715 50.5386 48.7067 50.2588 48.21C50.6839 48.5888 51.0655 49.0138 51.3964 49.4772C51.7774 49.9 52.1106 50.3636 52.39 50.8596Z" fill="#263238"/>
<path d="M77.4497 47.868C77.4497 47.922 72.8057 47.9616 67.0817 47.9616C61.3577 47.9616 56.7173 47.922 56.7173 47.868C56.7173 47.814 61.3577 47.7744 67.0817 47.7744C72.8057 47.7744 77.4497 47.8176 77.4497 47.868Z" fill="#263238"/>
<path d="M152.575 83.8613H81.4998V99.4349H152.575V83.8613Z" fill="#66CB65"/>
<g opacity="0.8">
<path d="M152.575 83.8613H81.4998V99.4349H152.575V83.8613Z" fill="white"/>
</g>
<path d="M91.0971 88.7285H86.8815C86.4342 88.7285 86.0715 89.0912 86.0715 89.5385V93.7541C86.0715 94.2015 86.4342 94.5641 86.8815 94.5641H91.0971C91.5445 94.5641 91.9071 94.2015 91.9071 93.7541V89.5385C91.9071 89.0912 91.5445 88.7285 91.0971 88.7285Z" fill="#66CB65"/>
<path d="M88.5485 92.9401C88.4706 92.9401 88.3948 92.9149 88.3325 92.8681L87.1553 91.9825C87.1128 91.9561 87.0764 91.9211 87.0482 91.8798C87.02 91.8385 87.0008 91.7918 86.9916 91.7427C86.9825 91.6935 86.9837 91.643 86.9952 91.5944C87.0067 91.5457 87.0281 91.5 87.0583 91.4601C87.0884 91.4202 87.1265 91.387 87.1701 91.3627C87.2137 91.3383 87.262 91.3233 87.3117 91.3186C87.3615 91.3139 87.4117 91.3196 87.4591 91.3353C87.5066 91.3511 87.5502 91.3766 87.5873 91.4101L88.5053 92.0977L90.3485 90.0961C90.4134 90.026 90.5035 89.9845 90.5991 89.9807C90.6946 89.977 90.7877 90.0114 90.8579 90.0763C90.928 90.1413 90.9695 90.2314 90.9733 90.3269C90.977 90.4225 90.9426 90.5156 90.8777 90.5857L88.8149 92.8249C88.7809 92.8616 88.7396 92.8907 88.6938 92.9106C88.6479 92.9304 88.5984 92.9405 88.5485 92.9401Z" fill="white"/>
<path d="M152.575 68.208H81.4998V83.7816H152.575V68.208Z" fill="#66CB65"/>
<path d="M152.146 83.8397C152.146 83.8937 136.443 83.9333 117.075 83.9333C97.7069 83.9333 82.0037 83.8937 82.0037 83.8397C82.0037 83.7857 97.7033 83.7461 117.075 83.7461C136.446 83.7461 152.146 83.7893 152.146 83.8397Z" fill="#263238"/>
<path d="M152.614 114.994H81.5393V129.916H152.614V114.994Z" fill="#66CB65"/>
<g opacity="0.8">
<path d="M152.614 114.994H81.5393V129.916H152.614V114.994Z" fill="white"/>
</g>
<path d="M91.1333 119.864H86.9177C86.4703 119.864 86.1077 120.227 86.1077 120.674V124.89C86.1077 125.337 86.4703 125.7 86.9177 125.7H91.1333C91.5806 125.7 91.9433 125.337 91.9433 124.89V120.674C91.9433 120.227 91.5806 119.864 91.1333 119.864Z" fill="#66CB65"/>
<path d="M88.5843 124.081C88.5064 124.081 88.4306 124.055 88.3683 124.009L87.1911 123.123C87.1147 123.066 87.0642 122.98 87.0507 122.886C87.0372 122.791 87.0618 122.695 87.1191 122.619C87.1764 122.543 87.2617 122.492 87.3562 122.479C87.4507 122.465 87.5467 122.49 87.6231 122.547L88.5411 123.238L90.3843 121.237C90.4152 121.198 90.4536 121.167 90.4972 121.144C90.5408 121.121 90.5886 121.107 90.6377 121.104C90.6868 121.1 90.7361 121.106 90.7826 121.122C90.8292 121.139 90.8719 121.164 90.9081 121.197C90.9444 121.231 90.9734 121.271 90.9935 121.316C91.0135 121.361 91.0241 121.41 91.0246 121.459C91.0251 121.508 91.0155 121.557 90.9964 121.602C90.9773 121.648 90.9491 121.689 90.9135 121.723L88.8399 123.965C88.8072 124.001 88.7677 124.029 88.7238 124.049C88.6799 124.069 88.6325 124.079 88.5843 124.081Z" fill="white"/>
<g opacity="0.8">
<path d="M152.575 68.208H81.4998V83.7816H152.575V68.208Z" fill="white"/>
</g>
<path d="M91.0971 73.0752H86.8815C86.4342 73.0752 86.0715 73.4378 86.0715 73.8852V78.1008C86.0715 78.5481 86.4342 78.9108 86.8815 78.9108H91.0971C91.5445 78.9108 91.9071 78.5481 91.9071 78.1008V73.8852C91.9071 73.4378 91.5445 73.0752 91.0971 73.0752Z" fill="#66CB65"/>
<path d="M88.5485 77.291C88.4706 77.291 88.3948 77.2657 88.3325 77.219L87.1553 76.3334C87.1128 76.307 87.0764 76.272 87.0482 76.2307C87.02 76.1894 87.0008 76.1427 86.9916 76.0936C86.9825 76.0444 86.9837 75.9939 86.9952 75.9453C87.0067 75.8966 87.0281 75.8509 87.0583 75.811C87.0884 75.7711 87.1265 75.7379 87.1701 75.7135C87.2137 75.6891 87.262 75.6741 87.3117 75.6694C87.3615 75.6647 87.4117 75.6704 87.4591 75.6862C87.5066 75.702 87.5502 75.7274 87.5873 75.761L88.5053 76.4486L90.3485 74.447C90.413 74.377 90.5027 74.3354 90.5978 74.3314C90.6929 74.3273 90.7858 74.3611 90.8561 74.4254C90.8913 74.4574 90.9198 74.4961 90.9399 74.5392C90.9601 74.5823 90.9715 74.629 90.9735 74.6765C90.9755 74.724 90.9681 74.7715 90.9516 74.8161C90.9352 74.8608 90.91 74.9017 90.8777 74.9366L88.8149 77.1758C88.7809 77.2124 88.7396 77.2416 88.6938 77.2614C88.6479 77.2813 88.5984 77.2913 88.5485 77.291Z" fill="white"/>
<path d="M152.56 129.916C152.56 129.257 152.528 93.0051 152.481 37.0719L152.56 37.1403H42.1264L42.22 37.0467C42.22 70.6923 42.22 102.426 42.22 129.891L42.1336 129.808L152.578 129.891L42.1336 129.974H42.04V129.891C42.04 102.426 42.04 70.6923 42.04 37.0467V36.9531H42.1444H152.578H152.657V37.0323C152.607 93.0051 152.56 129.257 152.56 129.916Z" fill="#66CB65"/>
<path d="M42.3459 43.4832C42.3459 43.4292 66.9736 43.3896 97.3504 43.3896C127.727 43.3896 152.362 43.4292 152.362 43.4832C152.362 43.5372 127.738 43.5768 97.3504 43.5768C66.9627 43.5768 42.3459 43.5336 42.3459 43.4832Z" fill="#66CB65"/>
<path d="M45.7084 41.3382C46.3605 41.3382 46.8892 40.8095 46.8892 40.1574C46.8892 39.5052 46.3605 38.9766 45.7084 38.9766C45.0562 38.9766 44.5276 39.5052 44.5276 40.1574C44.5276 40.8095 45.0562 41.3382 45.7084 41.3382Z" fill="#66CB65"/>
<path d="M48.9916 41.3382C49.6437 41.3382 50.1724 40.8095 50.1724 40.1574C50.1724 39.5052 49.6437 38.9766 48.9916 38.9766C48.3395 38.9766 47.8108 39.5052 47.8108 40.1574C47.8108 40.8095 48.3395 41.3382 48.9916 41.3382Z" fill="#66CB65"/>
<path d="M53.4701 39.3217C53.6352 39.4868 53.7476 39.6972 53.7931 39.9263C53.8386 40.1553 53.8151 40.3927 53.7258 40.6084C53.6364 40.8241 53.485 41.0085 53.2908 41.1382C53.0967 41.268 52.8684 41.3372 52.6349 41.3372C52.4014 41.3372 52.1731 41.268 51.979 41.1382C51.7848 41.0085 51.6334 40.8241 51.5441 40.6084C51.4547 40.3927 51.4312 40.1553 51.4767 39.9263C51.5222 39.6972 51.6346 39.4868 51.7997 39.3217C51.9094 39.212 52.0396 39.1249 52.1829 39.0655C52.3262 39.0062 52.4798 38.9756 52.6349 38.9756C52.79 38.9756 52.9436 39.0062 53.0869 39.0655C53.2302 39.1249 53.3604 39.212 53.4701 39.3217Z" fill="#66CB65"/>
<path d="M56.7999 56.2207C56.8848 56.2102 56.9707 56.2102 57.0555 56.2207L57.8043 56.1991L60.5475 56.1631H60.5835L60.6051 56.1919L61.8147 57.7831L61.8327 57.8083V57.8371C61.8327 58.5571 61.8327 59.3563 61.8327 60.1843V60.2779H60.6375H55.6983H55.6191V60.1807C55.6191 59.3671 55.6191 58.6435 55.6407 58.0207L56.4831 56.6995C56.5775 56.5327 56.6834 56.3727 56.7999 56.2207C56.7843 56.2689 56.7626 56.3149 56.7351 56.3575L56.5299 56.7175L55.7523 58.0459V58.0135C55.7523 58.6255 55.7523 59.3491 55.7703 60.1735L55.6911 60.0943H60.6303H61.7355L61.6419 60.1879C61.6419 59.3599 61.6419 58.5679 61.6419 57.8407L61.6599 57.8911L60.4719 56.2891L60.5331 56.3179L57.8187 56.2819H57.0627C56.9735 56.2694 56.8855 56.2489 56.7999 56.2207Z" fill="#263238"/>
<path d="M61.75 57.941C61.5797 57.9869 61.4043 58.011 61.228 58.013C60.8968 58.0418 60.4216 58.0742 59.8564 58.1102L59.932 58.031C59.9183 58.3319 59.8197 58.6227 59.6476 58.8698C59.5536 59.0056 59.4307 59.1187 59.2876 59.201C59.1293 59.2742 58.9579 59.3146 58.7836 59.3198C58.598 59.3275 58.413 59.294 58.2418 59.2218C58.0707 59.1496 57.9176 59.0405 57.7936 58.9022C57.5871 58.6551 57.4482 58.3586 57.3904 58.0418L57.4696 58.1066C56.944 58.1066 56.5048 58.0886 56.1988 58.0742C56.0375 58.0774 55.8765 58.0592 55.72 58.0202C55.8772 57.9863 56.038 57.9717 56.1988 57.977C56.5048 57.977 56.944 57.9518 57.4696 57.941H57.52V58.0094C57.5812 58.2911 57.711 58.5532 57.898 58.7726C58.0042 58.8917 58.1355 58.9857 58.2824 59.0479C58.4293 59.1102 58.5882 59.1391 58.7476 59.1326C58.8946 59.1321 59.0397 59.0989 59.1724 59.0354C59.2972 58.9709 59.4056 58.8785 59.4892 58.7654C59.642 58.5475 59.7339 58.2927 59.7556 58.0274V57.9518H59.824C60.3928 57.9338 60.868 57.923 61.2028 57.9194C61.3853 57.9034 61.5692 57.9106 61.75 57.941Z" fill="#263238"/>
<path d="M75.2824 56.4188C75.3828 56.3961 75.4856 56.3865 75.5884 56.39V56.4476C74.8684 56.4836 72.64 56.5124 70.0264 56.5124C68.4064 56.5124 66.9376 56.5124 65.8756 56.4836L64.6192 56.4548C64.4648 56.46 64.3102 56.4479 64.1584 56.4188C64.3102 56.3897 64.4648 56.3776 64.6192 56.3828L65.8756 56.354C66.9376 56.336 68.3956 56.3252 70.0264 56.3252C72.64 56.3252 74.854 56.354 75.5884 56.39V56.4476C75.4856 56.4535 75.3824 56.4438 75.2824 56.4188Z" fill="#263238"/>
<path d="M75.2824 58.7762C75.3824 58.7512 75.4856 58.7415 75.5884 58.7474V58.805C74.8684 58.841 72.64 58.8698 70.0264 58.8698C68.4064 58.8698 66.9376 58.8698 65.8756 58.841L64.6192 58.8122C64.4648 58.8151 64.3105 58.803 64.1584 58.7762C64.3102 58.7468 64.4647 58.7335 64.6192 58.7366L65.8756 58.7078C66.9376 58.7078 68.3956 58.6826 70.0264 58.6826C72.64 58.6826 74.854 58.7078 75.5884 58.7474V58.805C75.4857 58.8062 75.3832 58.7965 75.2824 58.7762Z" fill="#263238"/>
<path d="M75.2824 61.1307C75.3828 61.1081 75.4856 61.0984 75.5884 61.1019V61.1595C74.8684 61.1991 72.64 61.2243 70.0264 61.2243C68.4064 61.2243 66.9376 61.2243 65.8756 61.1991L64.6192 61.1667C64.4648 61.1719 64.3102 61.1598 64.1584 61.1307C64.3105 61.1039 64.4648 61.0918 64.6192 61.0947L65.8756 61.0659C66.9376 61.0479 68.3956 61.0371 70.0264 61.0371C72.64 61.0371 74.854 61.0659 75.5884 61.1019V61.1595C75.4856 61.1654 75.3824 61.1557 75.2824 61.1307Z" fill="#263238"/>
<path d="M56.7999 73.0932C56.884 73.0763 56.9698 73.0691 57.0555 73.0716L57.8043 73.0536L60.5475 73.0176H60.5835L60.6051 73.0464L61.8147 74.6376L61.8327 74.6628V74.6916C61.8327 75.4116 61.8327 76.2108 61.8327 77.0388V77.1324H60.6375H55.6983H55.6191V77.0532C55.6191 76.2396 55.6191 75.516 55.6407 74.8932V74.8752L56.4831 73.554C56.5753 73.3986 56.6775 73.2495 56.7891 73.1076C56.7735 73.1558 56.7518 73.2018 56.7243 73.2444L56.5191 73.6044L55.7559 74.94V74.9076C55.7559 75.5196 55.7559 76.2432 55.7739 77.0676L55.6947 76.9884H60.6339H61.7391L61.6455 77.082C61.6455 76.254 61.6455 75.462 61.6455 74.7348L61.6635 74.7852L60.4755 73.1832L60.5367 73.212L57.8223 73.176H57.0663C56.9752 73.1567 56.886 73.1289 56.7999 73.0932Z" fill="#263238"/>
<path d="M61.75 74.8037C61.5797 74.8495 61.4043 74.8737 61.228 74.8757C60.8968 74.9045 60.4216 74.9369 59.8564 74.9729L59.932 74.8937C59.9183 75.1945 59.8197 75.4853 59.6476 75.7325C59.5536 75.8682 59.4307 75.9813 59.2876 76.0637C59.1293 76.1369 58.9579 76.1773 58.7836 76.1825C58.598 76.1901 58.413 76.1567 58.2418 76.0845C58.0707 76.0123 57.9176 75.9031 57.7936 75.7649C57.5871 75.5177 57.4482 75.2213 57.3904 74.9045L57.4696 74.9693C56.944 74.9693 56.5048 74.9513 56.1988 74.9369C56.0378 74.9424 55.8768 74.9266 55.72 74.8901C55.8772 74.8558 56.0379 74.84 56.1988 74.8433L57.4696 74.8109H57.52V74.8793C57.5812 75.1609 57.711 75.4231 57.898 75.6425C58.0042 75.7615 58.1355 75.8555 58.2824 75.9178C58.4293 75.98 58.5882 76.0089 58.7476 76.0025C58.8946 76.0019 59.0397 75.9687 59.1724 75.9053C59.2972 75.8407 59.4056 75.7483 59.4892 75.6353C59.642 75.4173 59.7339 75.1626 59.7556 74.8973V74.8217H59.824C60.3928 74.8217 60.868 74.7929 61.2028 74.7893C61.385 74.7708 61.5689 74.7757 61.75 74.8037Z" fill="#263238"/>
<path d="M75.2824 73.2811C75.3828 73.2584 75.4856 73.2488 75.5884 73.2523V73.3099C74.8684 73.3459 72.64 73.3747 70.0264 73.3747C68.4064 73.3747 66.9376 73.3747 65.8756 73.3459L64.6192 73.3171C64.4648 73.3223 64.3102 73.3102 64.1584 73.2811C64.3102 73.252 64.4648 73.2399 64.6192 73.2451L65.8756 73.2163C66.9376 73.1983 68.3956 73.1875 70.0264 73.1875C72.64 73.1875 74.854 73.2163 75.5884 73.2523V73.3099C75.4856 73.3134 75.3828 73.3037 75.2824 73.2811Z" fill="#263238"/>
<path d="M75.2824 75.6389C75.3824 75.6139 75.4856 75.6042 75.5884 75.6101V75.6605C74.8684 75.6965 72.64 75.7253 70.0264 75.7253C68.4064 75.7253 66.9376 75.7253 65.8756 75.6965L64.6192 75.6677C64.4648 75.6706 64.3105 75.6585 64.1584 75.6317C64.3102 75.6022 64.4647 75.5889 64.6192 75.5921L65.8756 75.5633C66.9376 75.5453 68.3956 75.5381 70.0264 75.5381C72.64 75.5381 74.854 75.5633 75.5884 75.6029V75.6605C75.486 75.664 75.3834 75.6568 75.2824 75.6389Z" fill="#263238"/>
<path d="M75.2824 77.993C75.3828 77.9704 75.4856 77.9607 75.5884 77.9642V78.0218C74.8684 78.0614 72.64 78.0866 70.0264 78.0866C68.4064 78.0866 66.9376 78.0866 65.8756 78.0614L64.6192 78.029C64.4648 78.0342 64.3102 78.0221 64.1584 77.993C64.3105 77.9662 64.4648 77.9541 64.6192 77.957L65.8756 77.9282C66.9376 77.9102 68.3956 77.8994 70.0264 77.8994C72.64 77.8994 74.854 77.9282 75.5884 77.9642V78.0218C75.4856 78.0277 75.3824 78.018 75.2824 77.993Z" fill="#263238"/>
<path d="M56.7999 89.9555C56.884 89.9386 56.9698 89.9314 57.0555 89.9339L57.8043 89.9159L60.5475 89.8799H60.5835L60.6051 89.9087L61.8147 91.4999L61.8327 91.5251V91.5539C61.8327 92.2739 61.8327 93.0731 61.8327 93.9011V93.9947H60.6375H55.6983H55.6191V93.9155C55.6191 93.1019 55.6191 92.3783 55.6407 91.7555L56.4831 90.4343C56.5753 90.2789 56.6775 90.1298 56.7891 89.9879C56.7735 90.0361 56.7518 90.0821 56.7243 90.1247L56.5191 90.4847L55.7415 91.8131V91.7807C55.7415 92.3927 55.7415 93.1163 55.7595 93.9407L55.6803 93.8615H60.6195H61.7247L61.6311 93.9551C61.6311 93.1271 61.6311 92.3351 61.6311 91.6079L61.6491 91.6583L60.4611 90.0563L60.5223 90.0851L57.8079 90.0491H57.0519C56.9653 90.0254 56.881 89.9941 56.7999 89.9555Z" fill="#263238"/>
<path d="M61.75 91.666C61.5797 91.7118 61.4043 91.736 61.228 91.738C60.8968 91.7668 60.4216 91.7992 59.8564 91.8352L59.932 91.756C59.9183 92.0568 59.8197 92.3476 59.6476 92.5948C59.5536 92.7305 59.4307 92.8437 59.2876 92.926C59.1297 92.9997 58.9578 93.039 58.7836 93.0412C58.5981 93.0503 58.413 93.0179 58.2417 92.9463C58.0704 92.8746 57.9173 92.7656 57.7936 92.6272C57.5871 92.38 57.4482 92.0836 57.3904 91.7668L57.4696 91.8316C56.944 91.8316 56.5048 91.8316 56.1988 91.7992C56.0378 91.8047 55.8768 91.7889 55.72 91.7524C55.8772 91.7181 56.0379 91.7024 56.1988 91.7056L57.4696 91.6732H57.52V91.7416C57.5812 92.0232 57.711 92.2854 57.898 92.5048C58.0042 92.6238 58.1355 92.7178 58.2824 92.7801C58.4293 92.8423 58.5882 92.8712 58.7476 92.8648C58.8946 92.8642 59.0397 92.831 59.1724 92.7676C59.2972 92.703 59.4056 92.6106 59.4892 92.4976C59.642 92.2796 59.7339 92.0249 59.7556 91.7596V91.684H59.824C60.3928 91.6624 60.868 91.6552 61.2028 91.6516C61.385 91.6332 61.5689 91.638 61.75 91.666Z" fill="#263238"/>
<path d="M75.2824 90.1434C75.3828 90.1208 75.4856 90.1111 75.5884 90.1146V90.1722C74.8684 90.2082 72.64 90.237 70.0264 90.237C68.4064 90.237 66.9376 90.237 65.8756 90.2082L64.6192 90.1794C64.4648 90.1846 64.3102 90.1725 64.1584 90.1434C64.3102 90.1143 64.4648 90.1022 64.6192 90.1074L65.8756 90.0786C66.9376 90.0606 68.3956 90.0498 70.0264 90.0498C72.64 90.0498 74.854 90.0786 75.5884 90.1146V90.1722C75.4856 90.1757 75.3828 90.1661 75.2824 90.1434Z" fill="#263238"/>
<path d="M75.2824 92.5008C75.3824 92.4758 75.4856 92.4661 75.5884 92.472V92.5296C74.8684 92.5656 72.64 92.5944 70.0264 92.5944C68.4064 92.5944 66.9376 92.5944 65.8756 92.5656L64.6192 92.5368C64.4648 92.5397 64.3105 92.5276 64.1584 92.5008C64.3102 92.4714 64.4647 92.4581 64.6192 92.4612L65.8756 92.4324C66.9376 92.4144 68.3956 92.4072 70.0264 92.4072C72.64 92.4072 74.854 92.4324 75.5884 92.472V92.5296C75.4857 92.5308 75.3832 92.5211 75.2824 92.5008Z" fill="#263238"/>
<path d="M75.2824 94.8553C75.3828 94.8327 75.4856 94.823 75.5884 94.8265V94.8841C74.8684 94.9237 72.64 94.9489 70.0264 94.9489C68.4064 94.9489 66.9376 94.9489 65.8756 94.9237L64.6192 94.8913C64.4648 94.8965 64.3102 94.8844 64.1584 94.8553C64.3105 94.8285 64.4648 94.8165 64.6192 94.8193L65.8756 94.7905C66.9376 94.7905 68.3956 94.7617 70.0264 94.7617C72.64 94.7617 74.854 94.7905 75.5884 94.8265V94.8841C75.4856 94.89 75.3824 94.8803 75.2824 94.8553Z" fill="#263238"/>
<path d="M146.843 79.0983H144.1C143.957 79.1007 143.814 79.0745 143.681 79.0213C143.548 78.9681 143.427 78.8889 143.325 78.7884C143.222 78.6879 143.141 78.568 143.086 78.4358C143.03 78.3036 143.002 78.1616 143.002 78.0183V73.4463H143.362V78.0039C143.362 78.1 143.381 78.1951 143.418 78.2836C143.456 78.3722 143.51 78.4524 143.579 78.5195C143.648 78.5866 143.729 78.6392 143.819 78.6743C143.908 78.7094 144.004 78.7263 144.1 78.7239H146.843C147.034 78.7239 147.217 78.648 147.352 78.513C147.487 78.378 147.563 78.1948 147.563 78.0039V73.6047H147.923V78.0039C147.925 78.1469 147.899 78.2889 147.845 78.4216C147.792 78.5543 147.712 78.6751 147.612 78.7769C147.511 78.8787 147.392 78.9595 147.26 79.0147C147.128 79.0699 146.986 79.0983 146.843 79.0983Z" fill="#66CB65"/>
<path d="M148.391 73.4717H142.552V73.8317H148.391V73.4717Z" fill="#66CB65"/>
<path d="M144.41 73.6518H144.05V73.2522C144.05 73.0613 144.125 72.8781 144.26 72.7431C144.395 72.6081 144.579 72.5322 144.77 72.5322H146.21C146.401 72.5322 146.584 72.6081 146.719 72.7431C146.854 72.8781 146.93 73.0613 146.93 73.2522V73.5726H146.57V73.2522C146.57 73.1567 146.532 73.0652 146.464 72.9977C146.397 72.9302 146.305 72.8922 146.21 72.8922H144.77C144.674 72.8922 144.583 72.9302 144.515 72.9977C144.447 73.0652 144.41 73.1567 144.41 73.2522V73.6518Z" fill="#66CB65"/>
<path d="M144.64 77.7516C144.548 77.2411 144.516 76.7215 144.547 76.2036C144.516 75.6869 144.548 75.1685 144.64 74.6592C144.735 75.1682 144.766 75.6869 144.734 76.2036C144.766 76.7215 144.735 77.2414 144.64 77.7516Z" fill="#66CB65"/>
<path d="M145.486 77.7516C145.394 77.2411 145.362 76.7215 145.392 76.2036C145.362 75.6869 145.394 75.1685 145.486 74.6592C145.58 75.1682 145.612 75.6869 145.58 76.2036C145.612 76.7215 145.581 77.2414 145.486 77.7516Z" fill="#66CB65"/>
<path d="M146.339 77.7516C146.247 77.2411 146.216 76.7215 146.246 76.2036C146.216 75.6869 146.247 75.1685 146.339 74.6592C146.434 75.1682 146.465 75.6869 146.433 76.2036C146.465 76.7215 146.434 77.2414 146.339 77.7516Z" fill="#66CB65"/>
<path d="M146.843 93.8587H144.1C143.809 93.8578 143.53 93.7418 143.325 93.5361C143.119 93.3304 143.003 93.0516 143.002 92.7607V88.2031H143.362V92.7607C143.362 92.9565 143.44 93.1442 143.578 93.2826C143.717 93.421 143.904 93.4987 144.1 93.4987H146.843C147.036 93.494 147.219 93.4142 147.353 93.2763C147.488 93.1384 147.563 92.9534 147.563 92.7607V88.3615H147.923V92.7607C147.926 92.9041 147.899 93.0464 147.846 93.1796C147.793 93.3127 147.714 93.4339 147.613 93.5361C147.513 93.6383 147.393 93.7194 147.261 93.7748C147.128 93.8302 146.987 93.8587 146.843 93.8587Z" fill="#66CB65"/>
<path d="M148.391 88.2275H142.552V88.5875H148.391V88.2275Z" fill="#66CB65"/>
<path d="M144.41 88.4077H144.05V88.0081C144.05 87.8171 144.125 87.634 144.26 87.499C144.395 87.3639 144.579 87.2881 144.77 87.2881H146.21C146.401 87.2881 146.584 87.3639 146.719 87.499C146.854 87.634 146.93 87.8171 146.93 88.0081V88.3285H146.57V88.0081C146.57 87.9126 146.532 87.821 146.464 87.7535C146.397 87.686 146.305 87.6481 146.21 87.6481H144.77C144.674 87.6481 144.583 87.686 144.515 87.7535C144.447 87.821 144.41 87.9126 144.41 88.0081V88.4077Z" fill="#66CB65"/>
<path d="M144.64 92.5084C144.515 91.4814 144.515 90.443 144.64 89.416C144.765 90.443 144.765 91.4814 144.64 92.5084Z" fill="#66CB65"/>
<path d="M145.486 92.5084C145.361 91.4814 145.361 90.443 145.486 89.416C145.611 90.443 145.611 91.4814 145.486 92.5084Z" fill="#66CB65"/>
<path d="M146.339 92.5084C146.214 91.4814 146.214 90.443 146.339 89.416C146.464 90.443 146.464 91.4814 146.339 92.5084Z" fill="#66CB65"/>
<path d="M146.843 126.298H144.1C143.957 126.3 143.814 126.274 143.681 126.221C143.548 126.168 143.427 126.088 143.325 125.988C143.222 125.887 143.141 125.767 143.086 125.635C143.03 125.503 143.002 125.361 143.002 125.218V120.66H143.362V125.218C143.362 125.314 143.381 125.409 143.418 125.498C143.456 125.586 143.51 125.666 143.579 125.733C143.648 125.8 143.729 125.853 143.819 125.888C143.908 125.923 144.004 125.94 144.1 125.938H146.843C147.034 125.938 147.217 125.862 147.352 125.727C147.487 125.592 147.563 125.409 147.563 125.218V120.804H147.923V125.203C147.925 125.346 147.899 125.488 147.845 125.621C147.792 125.754 147.712 125.875 147.612 125.976C147.511 126.078 147.392 126.159 147.26 126.214C147.128 126.269 146.986 126.298 146.843 126.298Z" fill="#66CB65"/>
<path d="M148.391 120.671H142.552V121.031H148.391V120.671Z" fill="#66CB65"/>
<path d="M144.41 120.851H144.05V120.448C144.05 120.257 144.125 120.073 144.26 119.938C144.395 119.803 144.579 119.728 144.77 119.728H146.21C146.401 119.728 146.584 119.803 146.719 119.938C146.854 120.073 146.93 120.257 146.93 120.448V120.772H146.57V120.448C146.57 120.352 146.532 120.26 146.464 120.193C146.397 120.125 146.305 120.088 146.21 120.088H144.77C144.674 120.088 144.583 120.125 144.515 120.193C144.447 120.26 144.41 120.352 144.41 120.448V120.851Z" fill="#66CB65"/>
<path d="M144.64 124.952C144.515 123.925 144.515 122.886 144.64 121.859C144.765 122.886 144.765 123.925 144.64 124.952Z" fill="#66CB65"/>
<path d="M145.486 124.952C145.361 123.925 145.361 122.886 145.486 121.859C145.611 122.886 145.611 123.925 145.486 124.952Z" fill="#66CB65"/>
<path d="M146.339 124.952C146.214 123.925 146.214 122.886 146.339 121.859C146.464 122.886 146.464 123.925 146.339 124.952Z" fill="#66CB65"/>
<path d="M148.334 62.0883C148.321 61.9772 148.315 61.8653 148.316 61.7535C148.316 61.5195 148.316 61.2171 148.316 60.8355C148.316 60.0327 148.29 58.9167 148.276 57.5667L148.352 57.6423L141.76 57.6603L141.854 57.5667V58.7511C141.854 59.1435 141.854 59.5287 141.854 59.9067C141.854 60.6627 141.854 61.3899 141.854 62.0667L141.767 61.9803L146.483 62.0235L147.848 62.0451H148.208H148.341C148.186 62.053 148.031 62.053 147.876 62.0451L146.534 62.0703L141.76 62.1135H141.674V62.0271C141.674 61.3395 141.674 60.6123 141.674 59.8671V57.5271C141.591 57.6099 141.789 57.4119 141.767 57.4299L148.348 57.4515H148.424V57.5235C148.424 58.8915 148.395 60.0255 148.388 60.8391C148.388 61.1991 148.388 61.5123 148.366 61.7391C148.364 61.8561 148.353 61.9728 148.334 62.0883Z" fill="#263238"/>
<path d="M148.334 57.5664C148.268 57.6652 148.189 57.7548 148.1 57.8328C147.938 57.9948 147.704 58.2252 147.412 58.506C146.829 59.0676 146.015 59.8308 145.104 60.666H144.975L144.953 60.6444L144.914 60.6048L144.827 60.5292L144.662 60.3744L144.334 60.072L143.722 59.4996L142.689 58.5204C142.397 58.2396 142.163 58.0092 142.005 57.8472C141.915 57.7692 141.837 57.6796 141.771 57.5808C141.873 57.6411 141.968 57.7123 142.055 57.7932C142.228 57.9408 142.476 58.1532 142.775 58.4232L143.834 59.37L144.456 59.9352L144.784 60.2376L144.95 60.3888L145.036 60.468L145.079 60.5076H145.101C145.043 60.5076 145.23 60.5076 144.975 60.5076C145.882 59.6688 146.714 58.92 147.318 58.3836C147.624 58.1136 147.873 57.9012 148.038 57.7536C148.128 57.6788 148.228 57.6159 148.334 57.5664Z" fill="#263238"/>
<path d="M143.945 59.5898C143.648 60.0618 143.302 60.501 142.912 60.9002C142.569 61.343 142.176 61.7452 141.742 62.099C142.034 61.6208 142.379 61.1776 142.772 60.7778C143.116 60.3385 143.51 59.9399 143.945 59.5898Z" fill="#263238"/>
<path d="M148.373 62.1392C147.95 61.76 147.568 61.3364 147.236 60.8756C146.856 60.4521 146.524 59.9886 146.246 59.4932C146.669 59.8723 147.05 60.296 147.383 60.7568C147.764 61.1791 148.096 61.6428 148.373 62.1392Z" fill="#263238"/>
<path d="M152.146 52.5731C152.146 52.6235 136.443 52.6667 117.075 52.6667C97.7068 52.6667 82 52.6199 82 52.5731C82 52.5263 97.6996 52.4795 117.071 52.4795C136.443 52.4795 152.146 52.5227 152.146 52.5731Z" fill="#263238"/>
<path d="M152.146 68.2079C152.146 68.2583 136.443 68.3015 117.075 68.3015C97.7068 68.3015 82 68.2583 82 68.2079C82 68.1575 97.6996 68.1143 117.071 68.1143C136.443 68.1143 152.146 68.1539 152.146 68.2079Z" fill="#263238"/>
<path d="M152.146 99.1541C152.146 99.2045 136.443 99.2477 117.075 99.2477C97.7068 99.2477 82 99.2045 82 99.1541C82 99.1037 97.6996 99.0605 117.071 99.0605C136.443 99.0605 152.146 99.1001 152.146 99.1541Z" fill="#263238"/>
<path d="M152.146 114.994C152.146 115.048 136.443 115.088 117.075 115.088C97.7069 115.088 82.0037 115.048 82.0037 114.994C82.0037 114.94 97.7033 114.9 117.075 114.9C136.446 114.9 152.146 114.944 152.146 114.994Z" fill="#263238"/>
<path d="M91.1009 63.4204C91.1009 63.4204 91.1801 63.4204 91.3169 63.37C91.5151 63.307 91.6807 63.1687 91.7777 62.9848C91.9181 62.7508 91.8461 62.4016 91.8569 62.0056C91.8677 61.6096 91.8569 61.1596 91.8569 60.6664C91.8569 60.1732 91.8569 59.6224 91.8569 59.0428C91.8569 58.8952 91.8569 58.7476 91.8569 58.5964C91.8693 58.4525 91.8572 58.3077 91.8209 58.168C91.7755 58.0305 91.6898 57.9099 91.5748 57.8219C91.4599 57.7339 91.3211 57.6827 91.1765 57.6748H86.8817C86.7148 57.676 86.5536 57.7353 86.4255 57.8423C86.2975 57.9493 86.2106 58.0975 86.1797 58.2616C86.1545 58.5928 86.1797 58.9816 86.1797 59.3416C86.1797 60.0616 86.1797 60.7456 86.1797 61.4044C86.1797 61.732 86.1797 62.0524 86.1797 62.3656C86.17 62.5111 86.1772 62.6573 86.2013 62.8012C86.2321 62.9374 86.3007 63.0622 86.3993 63.1612C86.4943 63.2514 86.6108 63.3159 86.7377 63.3484C86.8673 63.3704 86.9989 63.3776 87.1301 63.37H87.9113L90.2621 63.3988L90.9029 63.4168C90.9777 63.415 91.0525 63.421 91.1261 63.4348C91.0521 63.4449 90.977 63.4449 90.9029 63.4348L90.2621 63.4528L87.9113 63.4852H87.1301C86.987 63.4953 86.8431 63.4881 86.7017 63.4636C86.5444 63.4281 86.3999 63.3498 86.2843 63.2373C86.1687 63.1249 86.0864 62.9826 86.0465 62.8264C86.0159 62.6699 86.0062 62.5101 86.0177 62.3512C86.0177 62.038 86.0177 61.7176 86.0177 61.39C86.0177 60.7312 86.0177 60.0436 86.0177 59.3272V58.7872C86.0055 58.599 86.0055 58.4102 86.0177 58.222C86.06 58.0184 86.1711 57.8356 86.3325 57.7044C86.4938 57.5733 86.6954 57.5018 86.9033 57.502H91.1801C91.3574 57.5143 91.527 57.5791 91.6674 57.6881C91.8077 57.7971 91.9126 57.9453 91.9685 58.114C92.0101 58.2712 92.0247 58.4343 92.0117 58.5964C92.0117 58.7476 92.0117 58.8952 92.0117 59.0428C92.0117 59.6224 92.0117 60.166 92.0117 60.6664C92.0117 61.1668 92.0117 61.6096 92.0117 62.0056C92.0117 62.2036 92.0117 62.3872 92.0117 62.5564C92.0163 62.7183 91.9778 62.8786 91.9001 63.0208C91.7866 63.2133 91.6015 63.353 91.3853 63.4096C91.2934 63.4394 91.1949 63.4432 91.1009 63.4204Z" fill="#263238"/>
<path d="M91.1009 110.137C91.1009 110.137 91.1801 110.137 91.3169 110.087C91.5151 110.024 91.6807 109.886 91.7777 109.702C91.9181 109.468 91.8461 109.118 91.8569 108.722C91.8677 108.326 91.8569 107.876 91.8569 107.383C91.8569 106.89 91.8569 106.339 91.8569 105.76C91.8569 105.612 91.8569 105.464 91.8569 105.313C91.8693 105.169 91.8572 105.025 91.8209 104.885C91.7755 104.747 91.6898 104.627 91.5748 104.539C91.4599 104.451 91.3211 104.4 91.1765 104.392H86.8817C86.7153 104.393 86.5545 104.452 86.4265 104.558C86.2985 104.664 86.2113 104.812 86.1797 104.975C86.1545 105.31 86.1797 105.695 86.1797 106.055C86.1797 106.775 86.1797 107.459 86.1797 108.118C86.1797 108.445 86.1797 108.766 86.1797 109.075C86.1699 109.222 86.1772 109.369 86.2013 109.514C86.231 109.651 86.2998 109.776 86.3993 109.874C86.4929 109.967 86.61 110.031 86.7377 110.062C86.8669 110.087 86.9988 110.095 87.1301 110.087H87.9113L90.2621 110.116L90.9029 110.134C90.9771 110.126 91.0519 110.126 91.1261 110.134C91.0529 110.15 90.9778 110.156 90.9029 110.152L90.2621 110.17L87.9113 110.198H87.1301C86.987 110.209 86.8431 110.201 86.7017 110.177C86.5444 110.141 86.3999 110.063 86.2843 109.951C86.1687 109.838 86.0864 109.696 86.0465 109.54C86.0156 109.382 86.0059 109.221 86.0177 109.061C86.0177 108.751 86.0177 108.431 86.0177 108.103C86.0177 107.444 86.0177 106.757 86.0177 106.04V105.5C86.0055 105.312 86.0055 105.123 86.0177 104.935C86.0563 104.728 86.1659 104.541 86.3275 104.407C86.4892 104.272 86.6929 104.198 86.9033 104.197H91.1801C91.3574 104.21 91.527 104.274 91.6674 104.383C91.8077 104.492 91.9126 104.641 91.9685 104.809C92.0101 104.966 92.0247 105.13 92.0117 105.292C92.0117 105.443 92.0117 105.59 92.0117 105.738C92.0117 106.318 92.0117 106.861 92.0117 107.362C92.0117 107.862 92.0117 108.305 92.0117 108.701C92.0117 108.899 92.0117 109.082 92.0117 109.252C92.0163 109.414 91.9778 109.574 91.9001 109.716C91.8445 109.811 91.7703 109.895 91.6818 109.961C91.5934 110.027 91.4926 110.075 91.3853 110.101C91.2951 110.137 91.1972 110.15 91.1009 110.137Z" fill="#263238"/>
<path d="M81.4817 128.58C81.4817 128.58 81.4817 128.505 81.4817 128.361C81.4817 128.217 81.4817 128.001 81.4817 127.716C81.4817 127.14 81.4817 126.305 81.4817 125.236C81.4817 123.076 81.4817 119.962 81.4817 116.117C81.4817 108.42 81.5753 97.786 81.6833 86.0392C81.7913 74.2924 81.8741 63.6616 81.9425 55.9576C81.9677 52.1128 81.9857 48.9988 82.0001 46.8388C82.0001 45.7588 82.0001 44.9344 82.0217 44.362C82.0217 44.0812 82.0217 43.8688 82.0217 43.7176C82.0217 43.5664 82.0217 43.498 82.0217 43.498C82.0217 43.498 82.0217 43.57 82.0217 43.7176C82.0217 43.8652 82.0217 44.0776 82.0217 44.362C82.0217 44.9344 82.0217 45.7696 82.0217 46.8388C82.0217 48.9988 82.0217 52.1128 82.0217 55.9576C82.0037 63.6544 81.9281 74.2924 81.8165 86.0392C81.7049 97.786 81.6257 108.413 81.5609 116.117C81.5357 119.962 81.5177 123.076 81.5033 125.236C81.5033 126.316 81.5033 127.14 81.4817 127.716C81.4817 127.994 81.4817 128.206 81.4817 128.361C81.4817 128.516 81.4817 128.58 81.4817 128.58Z" fill="#263238"/>
<path d="M121.568 74.4793C121.568 74.5297 116.168 74.5729 109.486 74.5729C102.805 74.5729 97.4045 74.5297 97.4045 74.4793C97.4045 74.4289 102.805 74.3857 109.486 74.3857C116.168 74.3857 121.568 74.4253 121.568 74.4793Z" fill="#263238"/>
<path d="M136.67 77.1434C136.67 77.1974 127.879 77.237 117.039 77.237C106.199 77.237 97.4045 77.1974 97.4045 77.1434C97.4045 77.0894 106.196 77.0498 117.039 77.0498C127.882 77.0498 136.67 77.1002 136.67 77.1434Z" fill="#263238"/>
<path d="M121.568 105.839C121.568 105.889 116.168 105.932 109.486 105.932C102.805 105.932 97.4045 105.889 97.4045 105.839C97.4045 105.788 102.805 105.745 109.486 105.745C116.168 105.745 121.568 105.785 121.568 105.839Z" fill="#263238"/>
<path d="M136.67 108.503C136.67 108.553 127.879 108.596 117.039 108.596C106.199 108.596 97.4045 108.553 97.4045 108.503C97.4045 108.452 106.196 108.409 117.039 108.409C127.882 108.409 136.67 108.452 136.67 108.503Z" fill="#263238"/>
<path d="M121.568 59.41C121.568 59.464 116.168 59.5072 109.486 59.5072C102.805 59.5072 97.4045 59.464 97.4045 59.41C97.4045 59.356 102.805 59.3164 109.486 59.3164C116.168 59.3164 121.568 59.3596 121.568 59.41Z" fill="#263238"/>
<path d="M136.67 62.078C136.67 62.1284 127.879 62.1716 117.039 62.1716C106.199 62.1716 97.4045 62.1284 97.4045 62.078C97.4045 62.0276 106.196 61.9844 117.039 61.9844C127.882 61.9844 136.67 62.0276 136.67 62.078Z" fill="#263238"/>
<path d="M121.568 89.8446C121.568 89.895 116.168 89.9382 109.486 89.9382C102.805 89.9382 97.4045 89.895 97.4045 89.8446C97.4045 89.7942 102.805 89.751 109.486 89.751C116.168 89.751 121.568 89.7942 121.568 89.8446Z" fill="#263238"/>
<path d="M136.67 92.5086C136.67 92.5626 127.879 92.6022 117.039 92.6022C106.199 92.6022 97.4045 92.5626 97.4045 92.5086C97.4045 92.4546 106.196 92.415 117.039 92.415C127.882 92.415 136.67 92.4582 136.67 92.5086Z" fill="#263238"/>
<path d="M121.568 120.718C121.568 120.768 116.168 120.811 109.486 120.811C102.805 120.811 97.4045 120.768 97.4045 120.718C97.4045 120.667 102.805 120.624 109.486 120.624C116.168 120.624 121.568 120.66 121.568 120.718Z" fill="#263238"/>
<path d="M136.67 123.382C136.67 123.432 127.879 123.475 117.039 123.475C106.199 123.475 97.4045 123.432 97.4045 123.382C97.4045 123.331 106.196 123.288 117.039 123.288C127.882 123.288 136.67 123.331 136.67 123.382Z" fill="#263238"/>
<path d="M148.985 45.4453H144.23V50.2009H148.985V45.4453Z" fill="#E0E0E0"/>
<path d="M141.242 45.4453H136.486V50.2009H141.242V45.4453Z" fill="#E0E0E0"/>
<path d="M133.498 45.4453H128.742V50.2009H133.498V45.4453Z" fill="#E0E0E0"/>
<path d="M47.1843 57.8975L49.2039 60.5327L50.9319 57.8975H47.1843Z" fill="#263238"/>
<path d="M42.807 92.0798C47.487 85.9022 52.4406 86.7734 55.8714 88.2674C57.5825 89.047 59.0214 90.3205 60.0029 91.9244C60.9845 93.5282 61.4638 95.389 61.3794 97.2674C61.3218 98.2538 61.1094 99.2906 61.5126 100.194C62.157 101.634 64.0326 102.055 65.1126 103.215C66.5994 104.802 66.2718 107.311 65.7678 109.428C65.2638 111.545 64.7382 113.957 65.9802 115.739C67.1214 117.37 69.2922 117.809 71.085 118.68C72.2745 119.248 73.3307 120.061 74.1843 121.065C75.038 122.07 75.6699 123.243 76.0386 124.509C76.3869 125.782 76.4143 127.122 76.1184 128.408C75.8225 129.695 75.2126 130.888 74.343 131.881C72.6006 133.775 69.987 134.617 67.4418 134.992C63.7203 135.541 59.9233 135.258 56.3246 134.162C52.7259 133.066 49.4151 131.186 46.631 128.656C43.8468 126.127 41.6586 123.011 40.2242 119.533C38.7897 116.056 38.1448 112.303 38.3358 108.546" fill="#263238"/>
<path d="M56.1161 88.5298C55.5591 88.5266 55.0024 88.5579 54.4493 88.6234C53.1268 88.8799 51.8303 89.2559 50.5757 89.7466C49.0817 90.2686 47.6381 90.5602 46.5869 90.4918C46.1734 90.4765 45.7635 90.41 45.3665 90.2938C45.2179 90.2568 45.075 90.1999 44.9417 90.1246C45.4818 90.2592 46.0342 90.3388 46.5905 90.3622C47.935 90.3224 49.2631 90.0546 50.5181 89.5702C52.0049 89.0482 53.3981 88.5982 54.4313 88.4902C54.8421 88.4403 55.2568 88.4294 55.6697 88.4578C55.821 88.4619 55.9711 88.4861 56.1161 88.5298Z" fill="#455A64"/>
<path d="M66.9017 137.667C67.0817 138.207 70.8149 155.847 70.8149 155.847L99.2153 166.766L97.6169 170.909L73.2665 168.767C59.0537 166.647 58.2653 159.674 59.1221 151.88L60.5945 138.52L66.9017 137.667Z" fill="#FFBE9D"/>
<path d="M26.0813 128.155C29.0081 123.724 33.4505 121.168 37.5185 119.753L52.4585 120.833C54.1292 120.688 55.8112 120.914 57.3843 121.495C58.9575 122.076 60.3831 122.996 61.5593 124.192L62.9489 161.211L66.3797 170.931H30.8369L26.0813 128.155Z" fill="#66CB65"/>
<path d="M62.1066 139.38C62.1066 139.38 62.0742 139.362 62.0202 139.323L61.779 139.143C61.6534 139.039 61.5225 138.941 61.3866 138.851L60.8286 138.491C60.6054 138.372 60.3606 138.239 60.0906 138.106C59.0575 137.633 57.9505 137.342 56.8182 137.245C55.8475 137.16 54.8694 137.221 53.9166 137.425C52.8225 137.655 51.7825 138.093 50.853 138.714C49.8056 139.368 48.9683 140.309 48.441 141.425C48.1775 142.013 48.0649 142.658 48.1134 143.301C48.1775 143.962 48.4271 144.592 48.8334 145.119C49.2315 145.647 49.821 145.997 50.475 146.094C50.783 146.151 51.1007 146.115 51.3883 145.991C51.6759 145.868 51.9205 145.662 52.0914 145.399C52.2249 145.125 52.2967 144.825 52.3017 144.521C52.3066 144.216 52.2447 143.914 52.1202 143.635C52.0148 143.353 51.872 143.087 51.6954 142.843C51.5183 142.608 51.3181 142.391 51.0978 142.195C50.2599 141.456 49.2436 140.949 48.1494 140.723C47.1973 140.513 46.2175 140.458 45.2478 140.561C43.8381 140.733 42.4519 141.061 41.115 141.54L40.017 141.9L39.7326 141.994C39.7008 142.008 39.6667 142.017 39.6318 142.019L39.7254 141.976L40.0062 141.864C40.251 141.771 40.6182 141.63 41.0862 141.461C42.4196 140.955 43.808 140.608 45.2226 140.428C46.2066 140.316 47.2022 140.363 48.171 140.568C49.2927 140.797 50.3358 141.313 51.1986 142.066C51.3138 142.167 51.4218 142.275 51.5262 142.386C51.6344 142.499 51.7342 142.619 51.825 142.746C52.0107 143.001 52.162 143.28 52.275 143.574C52.4092 143.878 52.4751 144.208 52.4683 144.54C52.4615 144.872 52.382 145.198 52.2354 145.497C52.0593 145.798 51.7866 146.032 51.4614 146.159C51.1365 146.286 50.7847 146.328 50.439 146.281C49.735 146.181 49.0994 145.805 48.6714 145.237C48.2463 144.683 47.9879 144.018 47.9262 143.322C47.878 142.647 48.0019 141.971 48.2862 141.357C48.8282 140.209 49.6909 139.242 50.7702 138.574C51.7214 137.946 52.783 137.505 53.8986 137.274C54.8668 137.075 55.8594 137.021 56.8434 137.116C57.6549 137.187 58.4537 137.364 59.2194 137.641C59.5329 137.754 59.8405 137.883 60.141 138.027C60.4146 138.167 60.6594 138.307 60.861 138.43L61.4154 138.808C61.549 138.904 61.6775 139.008 61.8006 139.117L62.0274 139.312L62.1066 139.38Z" fill="#FAFAFA"/>
<path d="M61.5593 124.174L70.3793 140.035L60.5945 143.041L61.5593 124.174Z" fill="#66CB65"/>
<path d="M62.7438 161.315C62.7264 161.223 62.7168 161.13 62.715 161.037C62.715 160.839 62.6898 160.577 62.6682 160.245C62.6358 159.525 62.5926 158.539 62.535 157.315C62.4342 154.845 62.3082 151.429 62.1966 147.656C62.085 143.883 62.0166 140.456 61.995 137.987C61.995 136.748 61.995 135.747 61.995 135.056C61.995 134.725 61.995 134.459 61.995 134.261C61.9931 134.168 61.9991 134.075 62.013 133.983C62.0295 134.075 62.0368 134.168 62.0346 134.261L62.0562 135.056C62.0562 135.776 62.0922 136.763 62.121 137.983C62.1858 140.474 62.2758 143.883 62.3766 147.649C62.4774 151.415 62.589 154.82 62.661 157.311C62.6898 158.532 62.715 159.529 62.733 160.242C62.733 160.573 62.733 160.839 62.733 161.037C62.746 161.129 62.7497 161.222 62.7438 161.315Z" fill="#263238"/>
<path d="M64.1621 129.005C64.1009 129.06 64.0332 129.107 63.9605 129.145C63.7615 129.271 63.5547 129.384 63.3413 129.484C62.3442 129.922 61.2534 130.103 60.1682 130.012C59.0829 129.921 58.0377 129.56 57.1277 128.962C56.8093 128.762 56.5198 128.52 56.2673 128.242C55.9892 127.941 55.8042 127.566 55.7345 127.162C55.6951 126.951 55.7035 126.733 55.7589 126.526C55.8144 126.319 55.9155 126.126 56.0549 125.963C56.2094 125.802 56.4032 125.684 56.6173 125.621C56.8313 125.558 57.0581 125.551 57.2753 125.603C57.4915 125.643 57.6969 125.728 57.8785 125.852C58.0601 125.976 58.2139 126.136 58.3301 126.323C58.5374 126.696 58.605 127.132 58.5209 127.55C58.4463 127.946 58.2744 128.318 58.0205 128.63C57.7764 128.926 57.4767 129.17 57.1385 129.35C56.514 129.662 55.836 129.853 55.1405 129.912C54.5428 129.98 53.9397 129.987 53.3405 129.934C52.4751 129.856 51.626 129.651 50.8205 129.325C50.6016 129.237 50.3877 129.138 50.1797 129.026C50.1037 128.994 50.0322 128.952 49.9673 128.9C50.0446 128.927 50.1203 128.959 50.1941 128.994C50.3417 129.059 50.5541 129.152 50.8457 129.257C51.6565 129.554 52.5046 129.737 53.3657 129.8C53.9561 129.844 54.5493 129.83 55.1369 129.757C55.8105 129.694 56.4661 129.504 57.0701 129.199C57.3867 129.029 57.6678 128.799 57.8981 128.522C58.1301 128.231 58.2871 127.888 58.3553 127.522C58.4293 127.147 58.3681 126.758 58.1825 126.424C58.0809 126.259 57.9456 126.117 57.7856 126.008C57.6256 125.899 57.4443 125.825 57.2537 125.79C57.0685 125.744 56.8745 125.748 56.6909 125.799C56.5072 125.851 56.3402 125.95 56.2061 126.085C56.0855 126.229 55.9984 126.397 55.951 126.578C55.9037 126.759 55.8974 126.949 55.9325 127.133C55.9969 127.499 56.1642 127.838 56.4149 128.112C56.6557 128.388 56.9331 128.631 57.2393 128.832C58.2962 129.544 59.5434 129.92 60.8177 129.912C61.6811 129.917 62.5372 129.753 63.3377 129.43C63.8705 129.178 64.1513 128.987 64.1621 129.005Z" fill="#FAFAFA"/>
<path d="M62.2829 161.006L62.1821 160.937L61.8941 160.729C61.5186 160.467 61.1253 160.233 60.7169 160.027C59.2072 159.281 57.5401 158.911 55.8569 158.947C53.7365 158.947 51.2273 159.667 48.7973 161.063C48.1739 161.416 47.5898 161.833 47.0549 162.309C46.4929 162.794 46.0265 163.38 45.6797 164.037C45.3269 164.715 45.2115 165.492 45.3521 166.244C45.4365 166.618 45.6293 166.958 45.9065 167.223C46.0423 167.352 46.2093 167.443 46.3911 167.488C46.5728 167.533 46.7631 167.53 46.9433 167.479C47.3031 167.355 47.6011 167.097 47.7749 166.759C47.9581 166.419 48.0604 166.042 48.0737 165.657C48.0673 164.885 47.829 164.132 47.3897 163.497C46.9715 162.883 46.428 162.364 45.7949 161.974C45.1856 161.604 44.517 161.342 43.8185 161.2C42.5108 160.956 41.1707 160.943 39.8585 161.161C38.7102 161.324 37.5756 161.572 36.4637 161.902C34.8534 162.393 33.2982 163.049 31.8233 163.861C31.3013 164.145 30.9053 164.383 30.6353 164.545L30.3329 164.732L30.2249 164.789C30.2249 164.789 30.2537 164.761 30.3221 164.714L30.6173 164.512C30.8765 164.339 31.2725 164.095 31.7909 163.792C33.2615 162.964 34.8173 162.298 36.4313 161.805C37.5476 161.463 38.6886 161.206 39.8441 161.038C41.1716 160.808 42.5295 160.815 43.8545 161.06C44.5736 161.203 45.2621 161.471 45.8885 161.852C46.5446 162.252 47.108 162.787 47.5409 163.421C48.0013 164.082 48.2522 164.866 48.2609 165.671C48.247 166.087 48.136 166.494 47.9369 166.859C47.7425 167.247 47.4039 167.543 46.9937 167.684C46.7832 167.744 46.5608 167.748 46.3482 167.696C46.1356 167.644 45.94 167.538 45.7805 167.389C45.4765 167.096 45.265 166.72 45.1721 166.309C45.0248 165.513 45.1517 164.69 45.5321 163.976C45.8892 163.298 46.3703 162.694 46.9505 162.194C47.498 161.712 48.094 161.289 48.7289 160.93C51.1841 159.519 53.7257 158.831 55.8749 158.831C57.5754 158.804 59.2568 159.194 60.7709 159.969C61.3184 160.246 61.8268 160.595 62.2829 161.006Z" fill="#FAFAFA"/>
<path d="M36.921 132.252C35.841 126.719 28.011 126.513 26.6394 131.982C26.6178 132.065 26.5962 132.151 26.5782 132.237C24.5586 140.852 31.3806 166.308 33.213 167.777C35.0454 169.245 36.8634 170.909 39.9954 169.609C41.8278 168.849 60.8538 152.034 60.8538 152.034C60.8538 152.034 65.253 156.249 66.7218 155.882C68.1906 155.515 70.9914 151.202 70.9914 151.202C70.9914 151.202 73.713 155.281 74.055 155.342C74.2408 155.373 74.4314 155.351 74.6057 155.28C74.78 155.209 74.9314 155.091 75.043 154.94C75.1547 154.788 75.2224 154.609 75.2387 154.421C75.2549 154.234 75.219 154.045 75.135 153.877C74.775 153.326 71.3046 145.741 71.3046 145.741C71.3046 145.741 74.037 145.446 73.4862 144.528C73.4862 144.528 73.4178 143.685 71.571 143.847C69.7242 144.009 69.7602 141.9 66.3222 142.101C62.8842 142.303 55.785 143.181 45.8022 150.842L41.1762 154.104L36.921 132.252Z" fill="#FFBE9D"/>
<path d="M45.7912 150.843L45.9064 150.749L46.2664 150.486L47.6164 149.475C49.3317 148.247 51.118 147.122 52.966 146.105C55.7926 144.539 58.8209 143.369 61.966 142.628C62.8732 142.437 63.8128 142.268 64.7884 142.156C65.278 142.102 65.7712 142.059 66.2752 142.023C66.7885 141.985 67.3046 142.008 67.8124 142.091C68.3361 142.183 68.8365 142.378 69.2848 142.664C69.742 142.941 70.1272 143.326 70.588 143.564C70.811 143.68 71.0569 143.745 71.308 143.754C71.5636 143.754 71.8444 143.722 72.1252 143.733C72.411 143.733 72.6946 143.782 72.964 143.877C73.1136 143.919 73.2495 144 73.3582 144.111C73.4668 144.222 73.5444 144.36 73.5832 144.51V144.474C73.6566 144.59 73.6824 144.729 73.6552 144.863C73.6155 144.991 73.5361 145.103 73.4284 145.184C73.2301 145.33 73.0086 145.442 72.7732 145.515C72.3043 145.663 71.822 145.766 71.3332 145.821L71.4088 145.695L73.8496 150.976C74.278 151.876 74.7028 152.801 75.1672 153.698C75.2421 153.809 75.3014 153.93 75.3436 154.058C75.3688 154.196 75.3688 154.337 75.3436 154.475C75.2974 154.757 75.1518 155.012 74.9332 155.195C74.825 155.287 74.6993 155.355 74.5638 155.397C74.4283 155.438 74.2857 155.452 74.1448 155.436H74.0404C74.0141 155.432 73.9886 155.423 73.9648 155.411L73.9144 155.375C73.8606 155.33 73.8101 155.28 73.7632 155.228C73.6732 155.13 73.5868 155.03 73.5076 154.925C72.568 153.723 71.7364 152.477 70.9084 151.253H71.0632C70.4122 152.245 69.7055 153.2 68.9464 154.112C68.5747 154.563 68.1691 154.985 67.7332 155.375C67.6216 155.469 67.5028 155.555 67.3912 155.649C67.2682 155.731 67.1408 155.807 67.0096 155.876C66.8744 155.948 66.7256 155.992 66.5726 156.005C66.4195 156.017 66.2656 155.998 66.1204 155.948C65.5749 155.774 65.058 155.52 64.5868 155.195C64.1152 154.889 63.6688 154.562 63.2332 154.223C62.3692 153.543 61.5592 152.834 60.7888 152.106H60.904C54.8704 157.413 49.7044 161.87 46.0108 164.958C44.164 166.503 42.6844 167.702 41.6476 168.494C41.1292 168.89 40.7224 169.185 40.438 169.368C40.2974 169.467 40.1466 169.55 39.988 169.617C39.988 169.617 40.1464 169.538 40.4236 169.343C40.7008 169.149 41.104 168.854 41.6152 168.45C42.6376 167.648 44.1064 166.434 45.9352 164.879C49.6108 161.769 54.7624 157.294 60.7852 151.977L60.8428 151.926L60.9004 151.98C61.6636 152.7 62.4772 153.42 63.3376 154.079C63.766 154.414 64.2124 154.742 64.6768 155.04C65.1319 155.352 65.6305 155.595 66.1564 155.76C66.6964 155.962 67.1788 155.58 67.5964 155.224C68.0233 154.839 68.4216 154.424 68.788 153.982C69.5415 153.075 70.2434 152.127 70.8904 151.142L70.966 151.023L71.0452 151.138C71.8696 152.358 72.7084 153.608 73.6336 154.799C73.7152 154.9 73.798 154.997 73.882 155.091C73.9252 155.134 73.9684 155.181 74.0116 155.217L74.0404 155.238C74.0404 155.238 74.0404 155.238 74.0404 155.271C74.0404 155.303 74.0404 155.328 74.0404 155.242H74.1268C74.2438 155.256 74.3623 155.245 74.475 155.211C74.5877 155.177 74.6922 155.12 74.782 155.044C74.9693 154.897 75.0926 154.684 75.1262 154.448C75.1597 154.213 75.1009 153.973 74.962 153.78C74.4832 152.862 74.0656 151.948 73.6372 151.044L71.2 145.756L71.1496 145.644H71.272C71.7474 145.59 72.2163 145.49 72.6724 145.346C72.888 145.282 73.0913 145.182 73.2736 145.05C73.3508 144.993 73.4086 144.914 73.4392 144.824C73.4549 144.735 73.437 144.644 73.3888 144.568V144.543C73.351 144.426 73.2848 144.321 73.1963 144.236C73.1077 144.151 72.9994 144.089 72.8812 144.057C72.6313 143.97 72.3683 143.926 72.1036 143.927C71.8336 143.927 71.5744 143.952 71.2864 143.949C71.0026 143.938 70.7248 143.864 70.4728 143.733C69.976 143.477 69.598 143.092 69.1588 142.822C68.7283 142.549 68.2491 142.362 67.7476 142.271C66.7504 142.091 65.7388 142.246 64.7704 142.332C63.802 142.419 62.866 142.606 61.9624 142.793C58.8207 143.521 55.7929 144.674 52.9624 146.22C51.1134 147.227 49.3215 148.335 47.5948 149.54L46.234 150.53L45.874 150.782L45.7912 150.843Z" fill="#EB996E"/>
<path d="M39.4662 160.297C39.4662 160.297 39.4266 160.203 39.3906 160.03C39.3411 159.782 39.311 159.531 39.3006 159.278C39.2072 157.594 39.6716 155.926 40.6218 154.533C40.764 154.323 40.9203 154.124 41.0898 153.935C41.2122 153.806 41.2842 153.737 41.2914 153.745C41.2986 153.752 41.0646 154.069 40.7334 154.605C39.8631 156.01 39.411 157.633 39.4302 159.285C39.4374 159.901 39.4986 160.293 39.4662 160.297Z" fill="#EB996E"/>
<path d="M31.6001 122.68C31.4237 122.798 25.0877 124.692 24.0905 131.186C23.0933 137.681 23.6801 148.992 23.6801 148.992L40.8665 147.811L35.9381 124.98L31.6001 122.68Z" fill="#66CB65"/>
<path d="M68.1186 154.986C68.0898 154.986 68.1366 154.752 68.1186 154.396C68.1005 153.929 67.9774 153.473 67.7586 153.06C67.5388 152.648 67.2302 152.289 66.855 152.009C66.567 151.8 66.3546 151.714 66.3654 151.682C66.5694 151.706 66.7639 151.781 66.9306 151.901C67.3518 152.167 67.6947 152.539 67.9242 152.981C68.1601 153.423 68.2709 153.921 68.2446 154.421C68.2488 154.617 68.2056 154.811 68.1186 154.986Z" fill="#EB996E"/>
<path d="M69.6989 153.06C69.6168 152.504 69.4178 151.971 69.115 151.497C68.8122 151.023 68.4125 150.618 67.9421 150.31C68.1121 150.339 68.2718 150.411 68.4065 150.518C68.7532 150.747 69.0476 151.046 69.2705 151.397C69.4966 151.746 69.6451 152.14 69.7061 152.552C69.7479 152.719 69.7454 152.894 69.6989 153.06Z" fill="#EB996E"/>
<path d="M69.699 148.956C69.699 148.938 69.861 149.01 70.059 149.186C70.3141 149.421 70.518 149.706 70.658 150.023C70.798 150.34 70.871 150.683 70.8726 151.029C70.8726 151.292 70.8258 151.451 70.8042 151.447C70.7522 150.986 70.6446 150.532 70.4838 150.097C70.2675 149.687 70.0042 149.304 69.699 148.956Z" fill="#EB996E"/>
<path d="M38.7713 137.03C38.7416 137.035 38.7111 137.035 38.6813 137.03L38.4221 137.001C38.09 136.96 37.7559 136.937 37.4213 136.933C36.1896 136.92 34.967 137.146 33.8213 137.599C32.1183 138.263 30.6545 139.425 29.6201 140.932C29.0047 141.803 28.6888 142.851 28.7201 143.917C28.7445 144.477 28.9105 145.022 29.2025 145.501C29.5078 145.986 29.9744 146.348 30.5201 146.523C31.0628 146.703 31.6531 146.675 32.1761 146.444C32.4223 146.326 32.6399 146.156 32.8139 145.946C32.988 145.736 33.1143 145.491 33.1841 145.227C33.3034 144.701 33.281 144.154 33.1193 143.639C32.9724 143.142 32.741 142.673 32.4353 142.253C31.8919 141.526 31.2097 140.913 30.428 140.451C29.6463 139.989 28.7807 139.686 27.8813 139.561C26.6598 139.401 25.4176 139.567 24.2813 140.043C23.9735 140.174 23.6741 140.325 23.3849 140.493L23.1617 140.63L23.0825 140.669C23.4402 140.388 23.8336 140.156 24.2525 139.978C25.3943 139.467 26.6541 139.278 27.8957 139.431C28.8178 139.549 29.707 139.85 30.5108 140.316C31.3146 140.783 32.0167 141.406 32.5757 142.149C32.8981 142.583 33.1418 143.071 33.2957 143.589C33.4682 144.134 33.4918 144.716 33.3641 145.274C33.2883 145.564 33.1502 145.834 32.9593 146.065C32.7684 146.297 32.5294 146.484 32.2589 146.613C31.6905 146.864 31.0495 146.896 30.4589 146.703C29.8735 146.507 29.3753 146.112 29.0513 145.587C28.7383 145.087 28.5574 144.516 28.5257 143.927C28.5007 142.818 28.8382 141.731 29.4869 140.831C30.5459 139.302 32.0451 138.13 33.7853 137.473C34.9454 137.027 36.183 136.819 37.4249 136.861C37.8782 136.872 38.3292 136.929 38.7713 137.03Z" fill="#FAFAFA"/>
<path d="M38.1844 127.705C38.0467 127.788 37.9007 127.855 37.7488 127.907C37.5759 127.983 37.3979 128.047 37.216 128.098C36.9804 128.18 36.7399 128.247 36.496 128.299C36.2031 128.373 35.9062 128.429 35.6068 128.469C35.2828 128.523 34.9372 128.541 34.57 128.566C33.7746 128.591 32.9787 128.537 32.194 128.404C31.4122 128.256 30.6475 128.03 29.9116 127.727C29.5768 127.576 29.2564 127.439 28.9756 127.277C28.7077 127.136 28.4481 126.98 28.198 126.809C27.9886 126.674 27.7867 126.527 27.5932 126.37C27.4424 126.26 27.2993 126.139 27.1648 126.01C27.0405 125.909 26.9271 125.796 26.8264 125.671C26.8516 125.639 27.3448 126.118 28.2664 126.701C28.5196 126.862 28.7816 127.009 29.0512 127.14C29.3534 127.3 29.6634 127.444 29.98 127.572C31.4348 128.163 32.9969 128.444 34.5664 128.397C34.9264 128.375 35.2864 128.364 35.5888 128.317C35.8912 128.271 36.2008 128.227 36.4708 128.173C37.54 127.947 38.17 127.669 38.1844 127.705Z" fill="#FAFAFA"/>
<path d="M39.603 138.718C39.6214 138.774 39.6347 138.832 39.6426 138.891C39.6642 139.02 39.693 139.186 39.7254 139.391C39.7974 139.852 39.8946 140.471 40.0134 141.274C40.2474 142.905 40.575 145.169 40.953 147.797V147.894H40.8594L36.8418 148.175L27.525 148.787L24.7026 148.953L23.9322 148.989H23.6802C23.7671 148.965 23.8565 148.952 23.9466 148.949L24.7098 148.881L27.5322 148.657L36.8454 147.988L40.8594 147.718L40.7766 147.819C40.4166 145.187 40.1214 142.919 39.9054 141.288C39.8046 140.496 39.7254 139.848 39.6678 139.398C39.6426 139.189 39.6246 139.038 39.6102 138.891C39.5995 138.834 39.597 138.775 39.603 138.718Z" fill="#263238"/>
<g opacity="0.2">
<path d="M31.269 122.499C31.0962 123.108 31.5786 123.677 31.8918 124.224C32.4966 125.275 32.529 126.546 32.583 127.759C32.6233 129.989 32.9661 132.202 33.6018 134.34C34.293 136.449 35.481 138.447 37.2378 139.808C38.9946 141.169 41.3526 141.835 43.5018 141.277C45.651 140.719 47.4618 138.811 47.6454 136.597C47.829 134.383 46.4934 132.41 45.7302 130.344C45.1398 128.753 44.877 127.061 44.5386 125.394C44.2002 123.727 43.7682 122.053 42.8862 120.602C42.0042 119.151 40.6038 117.938 38.9262 117.632C37.2486 117.326 35.3478 118.118 34.671 119.673" fill="black"/>
</g>
<path d="M39.5706 93.4337V95.3452L39.4446 124.005C39.4446 127.331 42.2814 129.995 45.8418 129.984C49.4418 129.984 52.4118 127.241 52.4802 123.864C52.5558 120.336 52.6962 116.625 52.6962 116.625C52.6962 116.625 57.2538 115.952 58.3014 110.037C58.8234 107.099 58.7586 102.261 58.5822 98.3045C58.5446 97.4602 58.3365 96.6324 57.9705 95.8708C57.6044 95.1091 57.088 94.4295 56.4522 93.8728C55.8165 93.3161 55.0746 92.8938 54.2713 92.6315C53.468 92.3692 52.62 92.2722 51.7782 92.3465L39.5706 93.4337Z" fill="#FFBE9D"/>
<path d="M57.1925 101.941C57.1907 102.139 57.1114 102.33 56.9716 102.471C56.8318 102.612 56.6424 102.693 56.4437 102.697C56.3465 102.704 56.2489 102.691 56.1569 102.659C56.0648 102.627 55.9802 102.576 55.9082 102.511C55.8362 102.445 55.7782 102.365 55.7379 102.277C55.6975 102.188 55.6755 102.092 55.6733 101.995C55.6752 101.797 55.7541 101.608 55.8932 101.467C56.0324 101.327 56.2208 101.246 56.4185 101.242C56.5157 101.235 56.6134 101.247 56.7057 101.279C56.7979 101.31 56.8828 101.36 56.9551 101.426C57.0275 101.491 57.0859 101.57 57.1267 101.659C57.1675 101.747 57.1899 101.843 57.1925 101.941Z" fill="#263238"/>
<path d="M57.4914 100.817C57.3942 100.915 56.829 100.475 56.0082 100.457C55.1874 100.439 54.5682 100.843 54.4962 100.742C54.453 100.695 54.5538 100.519 54.8166 100.335C55.174 100.092 55.5979 99.9664 56.0298 99.975C56.4548 99.9824 56.8667 100.124 57.207 100.378C57.4554 100.591 57.5382 100.771 57.4914 100.817Z" fill="#263238"/>
<path d="M49.4418 101.789C49.4399 101.987 49.3606 102.177 49.2206 102.318C49.0807 102.458 48.8914 102.539 48.693 102.541C48.5961 102.548 48.4988 102.535 48.407 102.504C48.3152 102.472 48.2307 102.422 48.1588 102.357C48.0868 102.291 48.0287 102.212 47.9882 102.124C47.9476 102.036 47.9253 101.94 47.9226 101.843C47.9244 101.645 48.0032 101.455 48.1422 101.314C48.2813 101.173 48.4698 101.092 48.6678 101.087C48.7653 101.08 48.8633 101.092 48.9558 101.124C49.0482 101.156 49.1333 101.206 49.2057 101.272C49.2781 101.337 49.3364 101.417 49.377 101.506C49.4176 101.595 49.4396 101.691 49.4418 101.789Z" fill="#263238"/>
<path d="M49.4453 100.824C49.3481 100.921 48.7793 100.485 47.9621 100.464C47.1449 100.442 46.5221 100.849 46.4501 100.748C46.4069 100.701 46.5077 100.525 46.7705 100.338C47.1286 100.097 47.552 99.971 47.9837 99.9778C48.4103 99.9824 48.8241 100.124 49.1645 100.381C49.4093 100.601 49.4921 100.781 49.4453 100.824Z" fill="#263238"/>
<path d="M52.3074 106.948C52.7406 106.82 53.188 106.746 53.6394 106.728C53.8518 106.728 54.0498 106.674 54.0858 106.534C54.1072 106.319 54.0633 106.102 53.9598 105.911C53.769 105.4 53.5746 104.867 53.3694 104.309C52.5522 102.027 51.9618 100.155 52.0554 100.122C52.149 100.09 52.8834 101.922 53.7006 104.194L54.2658 105.803C54.3926 106.059 54.4258 106.35 54.3594 106.628C54.3263 106.702 54.2766 106.767 54.2142 106.819C54.1518 106.871 54.0783 106.908 53.9994 106.926C53.8813 106.954 53.7606 106.968 53.6394 106.97C53.1961 107.015 52.749 107.008 52.3074 106.948Z" fill="#263238"/>
<path d="M52.6998 116.639C49.901 116.635 47.1586 115.853 44.7798 114.378C44.7798 114.378 46.6338 118.486 52.5774 118.036L52.6998 116.639Z" fill="#EB996E"/>
<path d="M51.9256 108.913C51.774 108.714 51.5741 108.557 51.3448 108.457C51.1154 108.357 50.8643 108.317 50.6152 108.341C50.4342 108.354 50.2577 108.403 50.0963 108.486C49.9348 108.569 49.7918 108.684 49.6756 108.823C49.5641 108.957 49.4964 109.122 49.4816 109.296C49.4668 109.47 49.5056 109.644 49.5928 109.795C49.7221 109.947 49.8946 110.057 50.0875 110.109C50.2803 110.161 50.4844 110.153 50.6728 110.087C51.0617 109.956 51.4212 109.751 51.7312 109.482C51.8241 109.418 51.9047 109.337 51.9688 109.244C51.998 109.199 52.0135 109.146 52.0135 109.091C52.0135 109.037 51.998 108.984 51.9688 108.938" fill="#EB996E"/>
<path d="M49.8881 107.47C50.0213 107.47 50.0069 108.352 50.7593 108.996C51.5117 109.641 52.4549 109.558 52.4585 109.684C52.4585 109.738 52.2461 109.853 51.8465 109.857C51.3252 109.856 50.8213 109.669 50.4245 109.331C50.0427 109.009 49.8022 108.55 49.7549 108.053C49.7261 107.7 49.8305 107.463 49.8881 107.47Z" fill="#263238"/>
<path d="M49.7152 97.6202C49.6288 97.8398 48.8152 97.721 47.854 97.8182C46.8928 97.9154 46.108 98.1782 45.9856 97.9622C45.9316 97.865 46.0684 97.6598 46.3852 97.451C46.8046 97.1879 47.2813 97.0298 47.7748 96.9902C48.2637 96.9429 48.7568 97.0107 49.2148 97.1882C49.5748 97.3394 49.7512 97.5158 49.7152 97.6202Z" fill="#263238"/>
<path d="M57.2321 98.4414C57.0845 98.625 56.5121 98.4234 55.8461 98.4018C55.1801 98.3802 54.5933 98.5026 54.4637 98.3082C54.4097 98.211 54.5033 98.0274 54.7553 97.8546C55.0963 97.6491 55.4908 97.55 55.8884 97.5699C56.2859 97.5898 56.6686 97.7277 56.9873 97.9662C57.2213 98.1606 57.2969 98.3406 57.2321 98.4414Z" fill="#263238"/>
<path d="M47.0046 91.5003C48.6102 93.5919 47.0046 96.5871 45.183 98.5095C43.3614 100.432 41.1762 102.657 41.6982 105.238C42.3066 108.233 46.4286 110.116 45.849 113.115C45.6366 114.195 44.769 115.149 44.7906 116.265C44.7906 118.277 47.4186 119.231 48.1854 121.089C49.2366 123.641 46.4394 126.222 46.4214 128.98C46.4214 130.546 47.3142 131.997 47.379 133.563C47.505 136.77 43.7358 139.153 40.6182 138.397C37.5006 137.641 35.337 134.603 34.6314 131.46C33.9258 128.317 34.3902 125.067 34.8618 121.895C34.563 123.249 32.511 123.522 31.4994 122.575C30.4878 121.629 30.351 120.055 30.5634 118.691C31.0962 115.253 33.321 112.326 34.3614 109.011C35.2722 106.109 35.247 103.013 35.6286 100.011C36.0102 97.0083 36.9102 93.8475 39.1926 91.8387C41.475 89.8299 45.4494 89.5455 47.3322 91.9323" fill="#263238"/>
<path d="M38.8757 137.22C38.8988 137.179 38.924 137.14 38.9513 137.101C39.0053 137.019 39.0809 136.903 39.1781 136.763C39.8985 135.62 40.3011 134.305 40.3445 132.954C40.3885 131.864 40.1893 130.778 39.7613 129.775C39.2897 128.659 38.4581 127.615 37.5797 126.478C37.1159 125.897 36.6914 125.286 36.3089 124.649C35.9108 123.97 35.6262 123.231 35.4665 122.46C35.2911 121.631 35.3611 120.769 35.6681 119.98C35.8391 119.578 36.0832 119.212 36.3881 118.9C36.7043 118.594 37.0451 118.315 37.4069 118.065C38.1269 117.553 38.8469 117.039 39.2537 116.239C39.6165 115.411 39.6752 114.482 39.4193 113.615C38.9873 111.815 37.7345 110.411 36.9317 108.845C36.5052 108.08 36.2509 107.231 36.1865 106.357C36.1501 105.516 36.309 104.678 36.6509 103.909C37.31 102.522 38.2618 101.294 39.4409 100.309C40.5209 99.3481 41.5649 98.5309 42.4325 97.6813C43.2341 96.9412 43.9015 96.0679 44.4053 95.1001C44.7829 94.3672 45.0129 93.5673 45.0821 92.7457C45.1228 92.227 45.0703 91.7052 44.9273 91.2049C44.8265 90.8449 44.7401 90.6937 44.7545 90.6865C44.8403 90.8486 44.9102 91.0186 44.9633 91.1941C45.124 91.6959 45.1888 92.2235 45.1541 92.7493C45.1008 93.5836 44.8778 94.3982 44.4989 95.1433C43.9988 96.1283 43.3313 97.0187 42.5261 97.7749C41.6585 98.6389 40.6037 99.4633 39.5453 100.425C38.3881 101.405 37.455 102.623 36.8093 103.996C36.4815 104.741 36.3288 105.551 36.3629 106.365C36.4269 107.211 36.6725 108.034 37.0829 108.777C37.4861 109.547 37.9865 110.285 38.4617 111.059C38.968 111.835 39.3494 112.685 39.5921 113.579C39.8585 114.489 39.7948 115.465 39.4121 116.333C38.9909 117.186 38.2025 117.719 37.5041 118.223C37.1502 118.467 36.8167 118.739 36.5069 119.037C36.2143 119.331 35.9777 119.676 35.8085 120.055C35.5155 120.813 35.448 121.64 35.6141 122.435C35.7678 123.194 36.0426 123.923 36.4277 124.595C36.8069 125.222 37.2266 125.823 37.6841 126.395C38.5517 127.525 39.3869 128.595 39.8621 129.736C40.2922 130.759 40.4854 131.867 40.4273 132.976C40.3733 134.34 39.9449 135.662 39.1889 136.799C39.0845 136.947 38.9981 137.051 38.9441 137.127C38.9238 137.16 38.901 137.191 38.8757 137.22Z" fill="#455A64"/>
<path d="M83.0226 144.024L69.3786 167.849L50.0574 168.518V170.642H106.502L121.863 145.478C121.988 145.261 122.055 145.016 122.056 144.765C122.057 144.514 121.993 144.268 121.87 144.05C121.747 143.832 121.568 143.649 121.353 143.521C121.138 143.393 120.893 143.323 120.643 143.318H84.261C84.0111 143.318 83.7655 143.383 83.5484 143.507C83.3312 143.631 83.15 143.809 83.0226 144.024Z" fill="#263238"/>
<path d="M100.112 156.743C99.2549 158.075 97.9517 158.756 97.1669 158.259C96.3821 157.762 96.4649 156.283 97.3217 154.951C98.1785 153.619 99.4817 152.938 100.267 153.435C101.051 153.932 100.969 155.411 100.112 156.743Z" fill="#E0E0E0"/>
<path d="M168.184 159.9C168.163 159.837 168.137 159.775 168.105 159.717L167.856 159.184C167.558 158.495 167.318 157.784 167.136 157.056C166.654 155.163 166.485 152.268 167.201 148.834C167.588 146.962 168.096 145.117 168.724 143.311C169.372 141.349 170.121 139.269 170.733 137.022C171.425 134.676 171.758 132.239 171.723 129.793C171.633 127.237 170.873 124.685 170.042 122.143C169.21 119.602 168.353 117.103 168.094 114.609C167.809 112.2 168.294 109.762 169.48 107.646C170.582 105.616 171.968 103.881 173.004 102.081C173.974 100.413 174.689 98.6099 175.125 96.7309C175.75 94.0108 175.795 91.1897 175.258 88.4509C175.069 87.4477 174.779 86.466 174.394 85.5205C174.406 85.5865 174.423 85.6514 174.444 85.7149C174.488 85.8553 174.545 86.0425 174.621 86.2765C174.837 86.9975 175.016 87.7293 175.157 88.4689C175.653 91.1965 175.579 93.9971 174.941 96.6949C174.498 98.5505 173.782 100.33 172.817 101.976C171.78 103.755 170.387 105.483 169.264 107.538C168.046 109.693 167.542 112.178 167.824 114.637C168.083 117.183 168.947 119.677 169.775 122.23C170.603 124.782 171.356 127.291 171.453 129.808C171.488 132.227 171.162 134.638 170.484 136.961C169.883 139.2 169.142 141.281 168.504 143.247C167.882 145.063 167.381 146.919 167.003 148.801C166.305 152.261 166.503 155.184 167.025 157.081C167.22 157.812 167.482 158.523 167.81 159.205L168.083 159.727C168.11 159.789 168.144 159.847 168.184 159.9Z" fill="#263238"/>
<path d="M171.579 103.855C171.579 103.855 173.685 97.1197 169.905 93.1741C169.876 93.1416 169.838 93.1179 169.797 93.1058C169.755 93.0937 169.71 93.0936 169.669 93.1057C169.627 93.1177 169.589 93.1414 169.56 93.1739C169.531 93.2064 169.512 93.2464 169.505 93.2893C169.304 94.4017 169.052 97.7893 171.579 103.855Z" fill="#66CB65"/>
<path d="M170.315 95.417C170.321 95.836 170.369 96.2533 170.459 96.6626C170.596 97.5158 170.758 98.5238 170.938 99.6326C171.118 100.741 171.273 101.749 171.41 102.606C171.445 103.022 171.52 103.433 171.633 103.834C171.673 103.416 171.661 102.995 171.597 102.581C171.525 101.811 171.392 100.752 171.197 99.5894C171.003 98.4266 170.805 97.3826 170.643 96.6266C170.579 96.2125 170.469 95.8068 170.315 95.417Z" fill="#263238"/>
<path d="M169.12 119.746C169.12 119.746 167.831 112.805 162.64 111.106C162.599 111.091 162.555 111.088 162.513 111.097C162.47 111.106 162.431 111.126 162.4 111.156C162.369 111.186 162.347 111.225 162.336 111.267C162.326 111.309 162.328 111.353 162.341 111.394C162.672 112.453 164.033 115.566 169.12 119.746Z" fill="#66CB65"/>
<path d="M164.04 112.881C164.246 113.247 164.487 113.592 164.76 113.91C165.282 114.605 165.894 115.415 166.56 116.312L168.36 118.72C168.588 119.07 168.847 119.399 169.134 119.703C168.972 119.319 168.764 118.957 168.515 118.623C168.094 117.975 167.478 117.104 166.765 116.164C166.053 115.224 165.387 114.396 164.886 113.806C164.642 113.465 164.358 113.155 164.04 112.881Z" fill="#263238"/>
<path d="M170.506 137.158C170.506 137.158 171.287 130.142 166.823 126.992C166.788 126.97 166.749 126.957 166.707 126.955C166.666 126.953 166.625 126.962 166.589 126.981C166.552 127 166.522 127.029 166.5 127.063C166.477 127.098 166.465 127.138 166.463 127.179C166.467 128.313 166.866 131.686 170.506 137.158Z" fill="#66CB65"/>
<path d="M167.655 129.116C167.742 129.525 167.871 129.925 168.04 130.308C168.339 131.125 168.688 132.079 169.077 133.134C169.466 134.189 169.797 135.146 170.106 135.963C170.222 136.364 170.374 136.753 170.56 137.126C170.52 136.71 170.428 136.3 170.286 135.906C170.07 135.161 169.736 134.149 169.325 133.026C168.915 131.903 168.519 130.931 168.213 130.221C168.069 129.833 167.881 129.463 167.655 129.116Z" fill="#263238"/>
<path d="M166.6 154.673C166.6 154.673 167.133 147.631 162.561 144.643C162.525 144.62 162.484 144.608 162.442 144.607C162.399 144.605 162.357 144.616 162.32 144.636C162.283 144.657 162.253 144.687 162.232 144.724C162.211 144.761 162.2 144.803 162.201 144.845C162.248 145.975 162.766 149.334 166.6 154.673Z" fill="#66CB65"/>
<path d="M163.464 146.738C163.561 147.145 163.701 147.539 163.882 147.915L165.02 150.702C165.444 151.746 165.826 152.689 166.15 153.492C166.281 153.889 166.447 154.273 166.647 154.64C166.589 154.224 166.482 153.817 166.326 153.427C166.085 152.707 165.714 151.692 165.264 150.601C164.814 149.51 164.382 148.538 164.055 147.843C163.899 147.455 163.701 147.084 163.464 146.738Z" fill="#263238"/>
<path d="M174.606 97.9372C174.606 97.9372 180.863 94.6684 180.985 89.2072C180.986 89.1649 180.976 89.1231 180.954 89.0863C180.933 89.0496 180.903 89.0193 180.866 88.9986C180.829 88.9779 180.787 88.9676 180.745 88.9688C180.702 88.9701 180.661 88.9828 180.625 89.0056C179.689 89.6464 177.115 91.8604 174.606 97.9372Z" fill="#66CB65"/>
<path d="M179.686 91.082C179.394 91.3807 179.133 91.7088 178.908 92.0612C178.397 92.7632 177.803 93.5876 177.144 94.4984C176.485 95.4092 175.884 96.2336 175.373 96.932C175.102 97.2513 174.861 97.5947 174.653 97.958C174.977 97.6916 175.266 97.3856 175.513 97.0472C176.007 96.4532 176.662 95.6072 177.349 94.6532C178.037 93.6992 178.635 92.8172 179.052 92.1656C179.305 91.8301 179.517 91.4665 179.686 91.082Z" fill="#263238"/>
<path d="M167.885 112.405C167.885 112.405 174.329 109.525 174.786 104.078C174.791 104.034 174.784 103.99 174.764 103.95C174.745 103.91 174.715 103.876 174.677 103.852C174.639 103.829 174.596 103.817 174.551 103.817C174.507 103.818 174.463 103.831 174.426 103.855C173.465 104.46 170.758 106.498 167.885 112.405Z" fill="#66CB65"/>
<path d="M173.375 105.875C173.063 106.154 172.782 106.465 172.536 106.804L170.628 109.129L168.713 111.451C168.425 111.754 168.166 112.083 167.939 112.434C168.276 112.184 168.583 111.895 168.854 111.574C169.383 111.012 170.088 110.209 170.834 109.299C171.579 108.388 172.227 107.542 172.684 106.919C172.953 106.598 173.184 106.248 173.375 105.875Z" fill="#263238"/>
<path d="M171.593 128.544C171.593 128.544 176.018 123.043 173.944 117.993C173.928 117.953 173.901 117.918 173.867 117.892C173.833 117.867 173.792 117.851 173.749 117.847C173.706 117.843 173.663 117.85 173.625 117.869C173.586 117.888 173.553 117.917 173.53 117.953C172.936 118.914 171.46 121.978 171.593 128.544Z" fill="#66CB65"/>
<path d="M173.505 120.231C173.357 120.623 173.249 121.028 173.181 121.441C172.997 122.287 172.781 123.281 172.543 124.382C172.306 125.484 172.083 126.474 171.895 127.32C171.779 127.72 171.698 128.129 171.654 128.544C171.842 128.17 171.984 127.775 172.075 127.367C172.291 126.625 172.554 125.588 172.795 124.436C173.037 123.284 173.235 122.237 173.357 121.473C173.452 121.066 173.502 120.65 173.505 120.231Z" fill="#263238"/>
<path d="M167.212 147.537C167.212 147.537 173.606 144.549 173.969 139.099C173.973 139.055 173.965 139.011 173.946 138.972C173.926 138.932 173.896 138.899 173.858 138.876C173.821 138.853 173.777 138.841 173.733 138.842C173.689 138.842 173.646 138.855 173.609 138.879C172.655 139.481 169.984 141.583 167.212 147.537Z" fill="#66CB65"/>
<path d="M172.59 140.914C172.285 141.2 172.009 141.516 171.766 141.857L169.898 144.219L168.04 146.58C167.757 146.889 167.504 147.222 167.284 147.578C167.616 147.323 167.917 147.029 168.18 146.703C168.702 146.134 169.394 145.317 170.124 144.392C170.855 143.466 171.489 142.613 171.924 141.983C172.184 141.652 172.408 141.294 172.59 140.914Z" fill="#263238"/>
<path d="M154.475 119.785C154.475 119.785 154.475 119.836 154.475 119.94C154.475 120.044 154.475 120.21 154.475 120.39C154.493 120.815 154.518 121.387 154.551 122.104C154.63 123.608 154.745 125.704 154.885 128.224C155.343 130.776 156.642 133.624 158.392 136.356C159.673 138.383 161.016 140.222 162.175 141.936C163.228 143.428 164.176 144.992 165.012 146.616C165.562 147.719 166.007 148.871 166.341 150.058C166.452 150.479 166.535 150.806 166.585 151.033C166.605 151.149 166.637 151.262 166.679 151.372C166.675 151.251 166.661 151.13 166.636 151.012C166.607 150.781 166.539 150.446 166.438 150.018C166.139 148.813 165.718 147.642 165.181 146.522C164.365 144.874 163.427 143.288 162.377 141.778C161.225 140.053 159.889 138.21 158.615 136.194C156.876 133.458 155.58 130.672 155.109 128.159C154.932 125.639 154.788 123.554 154.68 122.039C154.623 121.319 154.576 120.757 154.543 120.332C154.543 120.152 154.511 120.005 154.497 119.882C154.492 119.849 154.485 119.817 154.475 119.785Z" fill="#263238"/>
<path d="M158.28 135.837C158.28 135.837 155.573 129.321 158.979 125.037C159.005 125.003 159.041 124.977 159.081 124.961C159.122 124.946 159.166 124.942 159.208 124.951C159.251 124.959 159.29 124.979 159.322 125.008C159.354 125.037 159.377 125.075 159.389 125.117C159.691 126.218 160.249 129.57 158.28 135.837Z" fill="#66CB65"/>
<path d="M158.773 127.32C158.657 127.723 158.585 128.137 158.561 128.555C158.464 129.322 158.356 130.384 158.273 131.558C158.19 132.731 158.151 133.8 158.151 134.571C158.124 134.99 158.149 135.411 158.226 135.824C158.299 135.412 158.336 134.996 158.334 134.578C158.392 133.714 158.46 132.699 158.536 131.576C158.611 130.452 158.687 129.437 158.745 128.573C158.798 128.158 158.807 127.738 158.773 127.32Z" fill="#263238"/>
<g opacity="0.3">
<path d="M158.28 135.837C158.28 135.837 155.573 129.321 158.979 125.037C159.005 125.003 159.041 124.977 159.081 124.961C159.122 124.946 159.166 124.942 159.208 124.951C159.251 124.959 159.29 124.979 159.322 125.008C159.354 125.037 159.377 125.075 159.389 125.117C159.691 126.218 160.249 129.57 158.28 135.837Z" fill="black"/>
</g>
<path d="M166.672 151.548C166.672 151.548 164.512 144.831 168.242 140.853C168.271 140.82 168.308 140.797 168.35 140.785C168.391 140.773 168.436 140.772 168.478 140.784C168.519 140.795 168.557 140.818 168.587 140.85C168.616 140.882 168.636 140.922 168.645 140.964C168.857 142.073 169.138 145.461 166.672 151.548Z" fill="#66CB65"/>
<path d="M167.853 143.099C167.702 143.49 167.597 143.897 167.539 144.312C167.381 145.068 167.179 146.112 167.01 147.278C166.841 148.445 166.704 149.503 166.65 150.273C166.592 150.689 166.584 151.109 166.625 151.526C166.735 151.124 166.806 150.711 166.837 150.295C166.963 149.438 167.115 148.43 167.28 147.321C167.446 146.213 167.604 145.201 167.734 144.344C167.814 143.934 167.854 143.517 167.853 143.099Z" fill="#263238"/>
<g opacity="0.3">
<path d="M166.672 151.548C166.672 151.548 164.512 144.831 168.242 140.853C168.271 140.82 168.308 140.797 168.35 140.785C168.391 140.773 168.436 140.772 168.478 140.784C168.519 140.795 168.557 140.818 168.587 140.85C168.616 140.882 168.636 140.922 168.645 140.964C168.857 142.073 169.138 145.461 166.672 151.548Z" fill="black"/>
</g>
<path d="M154.832 127.86C154.832 127.86 149.05 123.813 149.633 118.381C149.637 118.338 149.653 118.296 149.678 118.262C149.704 118.227 149.739 118.2 149.78 118.184C149.82 118.168 149.864 118.163 149.907 118.171C149.95 118.178 149.99 118.197 150.022 118.226C150.861 118.997 153.129 121.527 154.832 127.86Z" fill="#66CB65"/>
<g opacity="0.3">
<path d="M154.832 127.86C154.832 127.86 149.05 123.813 149.633 118.381C149.637 118.338 149.653 118.296 149.678 118.262C149.704 118.227 149.739 118.2 149.78 118.184C149.82 118.168 149.864 118.163 149.907 118.171C149.95 118.178 149.99 118.197 150.022 118.226C150.861 118.997 153.129 121.527 154.832 127.86Z" fill="black"/>
</g>
<path d="M150.681 120.419C150.795 120.821 150.956 121.209 151.159 121.575C151.491 122.273 151.969 123.227 152.527 124.264C153.085 125.301 153.607 126.222 154.039 126.874C154.244 127.24 154.492 127.581 154.777 127.889C154.62 127.502 154.427 127.131 154.201 126.78L152.761 124.138L151.321 121.492C151.144 121.114 150.929 120.754 150.681 120.419Z" fill="#263238"/>
<path d="M164.339 144.888C164.339 144.888 157.362 143.808 155.494 138.668C155.479 138.627 155.476 138.584 155.484 138.542C155.493 138.5 155.512 138.461 155.541 138.429C155.57 138.398 155.607 138.375 155.649 138.363C155.69 138.351 155.733 138.35 155.775 138.362C156.88 138.66 160.015 139.942 164.339 144.888Z" fill="#66CB65"/>
<g opacity="0.3">
<path d="M164.339 144.888C164.339 144.888 157.362 143.808 155.494 138.668C155.479 138.627 155.476 138.584 155.484 138.542C155.493 138.5 155.512 138.461 155.541 138.429C155.57 138.398 155.607 138.375 155.649 138.363C155.69 138.351 155.733 138.35 155.775 138.362C156.88 138.66 160.015 139.942 164.339 144.888Z" fill="black"/>
</g>
<path d="M157.326 140.028C157.609 140.337 157.926 140.614 158.27 140.853C158.871 141.335 159.71 141.98 160.682 142.653C161.654 143.326 162.528 143.927 163.202 144.33C163.545 144.572 163.917 144.769 164.31 144.917C163.998 144.641 163.662 144.393 163.306 144.176L160.84 142.451L158.388 140.705C158.058 140.444 157.702 140.217 157.326 140.028Z" fill="#263238"/>
<path d="M172.59 157.726L170.592 170.848L162.6 170.833L159.911 157.726H172.59Z" fill="#455A64"/>
<path d="M161.081 162.78C161.081 162.78 161.099 162.801 161.146 162.83C161.193 162.859 161.261 162.902 161.358 162.949C161.639 163.086 161.941 163.176 162.251 163.215C162.745 163.282 163.247 163.235 163.72 163.079C164.357 162.877 164.912 162.474 165.3 161.93C165.515 161.602 165.639 161.223 165.66 160.832C165.682 160.613 165.643 160.391 165.547 160.192C165.451 159.993 165.302 159.825 165.117 159.705C164.905 159.6 164.668 159.555 164.432 159.574C164.196 159.593 163.97 159.676 163.777 159.813C163.38 160.105 163.107 160.535 163.014 161.019C162.908 161.506 162.874 162.006 162.913 162.503C162.94 163.022 163.05 163.533 163.237 164.018C163.434 164.527 163.751 164.981 164.163 165.339C164.59 165.718 165.13 165.943 165.7 165.98C166.269 165.993 166.828 165.831 167.302 165.516C167.757 165.225 168.16 164.86 168.493 164.436C168.837 164.028 169.047 163.526 169.098 162.996C169.118 162.736 169.078 162.475 168.979 162.234C168.88 161.992 168.726 161.777 168.529 161.606C168.327 161.456 168.086 161.369 167.835 161.353C167.584 161.338 167.334 161.396 167.115 161.52C166.904 161.625 166.721 161.777 166.579 161.964C166.438 162.151 166.341 162.369 166.297 162.6C166.237 163.008 166.302 163.424 166.482 163.795C166.663 164.165 166.951 164.473 167.309 164.677C167.899 164.997 168.583 165.096 169.239 164.958C169.723 164.857 170.187 164.674 170.61 164.418C170.878 164.261 171.135 164.088 171.381 163.899C171.471 163.838 171.555 163.767 171.629 163.687C171.534 163.74 171.443 163.799 171.355 163.863C171.179 163.979 170.92 164.155 170.571 164.346C170.149 164.582 169.692 164.747 169.217 164.835C168.592 164.957 167.944 164.854 167.388 164.544C167.064 164.352 166.804 164.069 166.642 163.729C166.48 163.389 166.422 163.008 166.477 162.636C166.517 162.435 166.603 162.247 166.728 162.085C166.853 161.923 167.013 161.793 167.197 161.703C167.382 161.595 167.595 161.543 167.81 161.556C168.024 161.569 168.229 161.645 168.4 161.775C168.57 161.927 168.702 162.117 168.786 162.328C168.871 162.54 168.905 162.769 168.886 162.996C168.837 163.484 168.639 163.945 168.321 164.317C168.002 164.721 167.617 165.068 167.183 165.343C166.745 165.631 166.231 165.782 165.707 165.775C165.187 165.737 164.694 165.53 164.303 165.185C163.916 164.851 163.617 164.427 163.432 163.95C163.253 163.489 163.148 163.003 163.119 162.51C163.08 162.034 163.109 161.555 163.205 161.088C163.288 160.656 163.529 160.271 163.882 160.008C164.044 159.887 164.236 159.813 164.437 159.793C164.638 159.773 164.841 159.809 165.023 159.896C165.181 159.998 165.309 160.142 165.391 160.311C165.473 160.481 165.506 160.67 165.487 160.857C165.468 161.221 165.354 161.574 165.156 161.88C164.79 162.401 164.268 162.791 163.666 162.996C163.22 163.143 162.747 163.192 162.28 163.14C161.863 163.087 161.458 162.966 161.081 162.78Z" fill="#263238"/>
</svg>
